<svg width="590" height="211" viewBox="0 0 590 211" fill="none" xmlns="http://www.w3.org/2000/svg">
  <g filter="url(#filter0_d_525_5)">
    <rect x="32" y="33" width="508" height="140" fill="white"/>
  </g>
  <path opacity="0.15" d="M470.893 90.623H485.307C488.998 90.623 492.016 89.9785 494.359 88.6895C496.762 87.3418 498.549 85.4668 499.721 83.0645C500.893 80.6035 501.479 77.7031 501.479 74.3633C501.479 71.7852 500.922 69.4121 499.809 67.2441C498.754 65.0762 497.113 63.3477 494.887 62.0586C492.66 60.7109 489.818 60.0371 486.361 60.0371C484.018 60.0371 481.732 60.5352 479.506 61.5312C477.279 62.4688 475.434 63.8164 473.969 65.5742C472.562 67.332 471.859 69.4707 471.859 71.9902H442.152C442.152 64.7246 444.145 58.5137 448.129 53.3574C452.172 48.1426 457.475 44.1582 464.037 41.4043C470.658 38.5918 477.777 37.1855 485.395 37.1855C494.477 37.1855 502.445 38.5918 509.301 41.4043C516.156 44.1582 521.488 48.2598 525.297 53.709C529.164 59.0996 531.098 65.7793 531.098 73.748C531.098 78.1426 530.072 82.2734 528.021 86.1406C525.971 90.0078 523.1 93.4062 519.408 96.3359C515.717 99.2656 511.381 101.58 506.4 103.279C501.479 104.92 496.088 105.74 490.229 105.74H470.893V90.623ZM470.893 112.684V97.918H490.229C496.615 97.918 502.445 98.6504 507.719 100.115C512.992 101.521 517.533 103.631 521.342 106.443C525.15 109.256 528.08 112.742 530.131 116.902C532.182 121.004 533.207 125.721 533.207 131.053C533.207 137.029 532.006 142.361 529.604 147.049C527.201 151.736 523.832 155.691 519.496 158.914C515.16 162.137 510.092 164.598 504.291 166.297C498.49 167.938 492.191 168.758 485.395 168.758C480.062 168.758 474.73 168.055 469.398 166.648C464.066 165.184 459.203 162.957 454.809 159.969C450.414 156.922 446.869 153.055 444.174 148.367C441.537 143.621 440.219 137.967 440.219 131.404H469.926C469.926 134.1 470.658 136.561 472.123 138.787C473.646 140.955 475.668 142.684 478.188 143.973C480.707 145.262 483.432 145.906 486.361 145.906C489.994 145.906 493.07 145.232 495.59 143.885C498.168 142.479 500.131 140.604 501.479 138.26C502.826 135.916 503.5 133.309 503.5 130.438C503.5 126.102 502.768 122.645 501.303 120.066C499.896 117.488 497.816 115.613 495.062 114.441C492.367 113.27 489.115 112.684 485.307 112.684H470.893Z" fill="black"/>
  <defs>
    <filter id="filter0_d_525_5" x="0" y="5" width="572" height="204" filterUnits="userSpaceOnUse" color-interpolation-filters="sRGB">
      <feFlood flood-opacity="0" result="BackgroundImageFix"/>
      <feColorMatrix in="SourceAlpha" type="matrix" values="0 0 0 0 0 0 0 0 0 0 0 0 0 0 0 0 0 0 127 0" result="hardAlpha"/>
      <feOffset dy="4"/>
      <feGaussianBlur stdDeviation="16"/>
      <feComposite in2="hardAlpha" operator="out"/>
      <feColorMatrix type="matrix" values="0 0 0 0 0 0 0 0 0 0 0 0 0 0 0 0 0 0 0.08 0"/>
      <feBlend mode="normal" in2="BackgroundImageFix" result="effect1_dropShadow_525_5"/>
      <feBlend mode="normal" in="SourceGraphic" in2="effect1_dropShadow_525_5" result="shape"/>
    </filter>
  </defs>
</svg>
