<svg width="163" height="111" viewBox="0 0 163 111" fill="none" xmlns="http://www.w3.org/2000/svg">
  <path d="M73.834 46.1582V65.1279C73.834 72.9404 72.9551 79.7031 71.1973 85.416C69.4883 91.1289 66.998 95.8408 63.7266 99.5518C60.5039 103.263 56.6465 106.021 52.1543 107.828C47.7109 109.586 42.7793 110.465 37.3594 110.465C33.0137 110.465 28.9609 109.903 25.2012 108.78C21.4414 107.657 18.0479 105.924 15.0205 103.58C12.042 101.188 9.47852 98.209 7.33008 94.6445C5.18164 91.0801 3.52148 86.832 2.34961 81.9004C1.22656 76.9688 0.665039 71.3779 0.665039 65.1279V46.1582C0.665039 38.248 1.51953 31.4609 3.22852 25.7969C4.98633 20.1328 7.50098 15.4453 10.7725 11.7344C14.0439 8.02344 17.9014 5.28906 22.3447 3.53125C26.8369 1.77344 31.793 0.894531 37.2129 0.894531C41.5586 0.894531 45.5869 1.45605 49.2979 2.5791C53.0576 3.70215 56.4512 5.43555 59.4785 7.7793C62.5059 10.123 65.0693 13.0771 67.1689 16.6416C69.3174 20.2061 70.9531 24.4541 72.0762 29.3857C73.248 34.2686 73.834 39.8594 73.834 46.1582ZM50.9824 67.9844V43.1553C50.9824 39.4932 50.7627 36.3193 50.3232 33.6338C49.9326 30.8994 49.3467 28.5801 48.5654 26.6758C47.833 24.7715 46.9053 23.2334 45.7822 22.0615C44.6592 20.8896 43.3652 20.0352 41.9004 19.498C40.4844 18.9121 38.9219 18.6191 37.2129 18.6191C35.0645 18.6191 33.1357 19.0586 31.4268 19.9375C29.7178 20.8164 28.2773 22.208 27.1055 24.1123C25.9336 25.9678 25.0303 28.4824 24.3955 31.6562C23.8096 34.7812 23.5166 38.6143 23.5166 43.1553V67.9844C23.5166 71.6465 23.7119 74.8447 24.1025 77.5791C24.542 80.3135 25.1279 82.6572 25.8604 84.6104C26.6416 86.5146 27.5938 88.0771 28.7168 89.2979C29.8398 90.4697 31.1338 91.3242 32.5986 91.8613C34.0635 92.3984 35.6504 92.667 37.3594 92.667C39.5078 92.667 41.4121 92.252 43.0723 91.4219C44.7324 90.543 46.1484 89.1514 47.3203 87.2471C48.541 85.2939 49.4443 82.7305 50.0303 79.5566C50.665 76.3828 50.9824 72.5254 50.9824 67.9844ZM162.823 68.2773V86.002H86.0654L84.8203 72.0859L128.473 2.35938H146.563L126.935 34.8789L107.086 68.2773H162.823ZM151.397 2.35938V109H128.546V2.35938H151.397Z" fill="#E0E0E0"/>
</svg>
