<svg width="161" height="111" viewBox="0 0 161 111" fill="none" xmlns="http://www.w3.org/2000/svg">
  <path d="M73.834 46.1582V65.1279C73.834 72.9404 72.9551 79.7031 71.1973 85.416C69.4883 91.1289 66.998 95.8408 63.7266 99.5518C60.5039 103.263 56.6465 106.021 52.1543 107.828C47.7109 109.586 42.7793 110.465 37.3594 110.465C33.0137 110.465 28.9609 109.903 25.2012 108.78C21.4414 107.657 18.0479 105.924 15.0205 103.58C12.042 101.188 9.47852 98.209 7.33008 94.6445C5.18164 91.0801 3.52148 86.832 2.34961 81.9004C1.22656 76.9688 0.665039 71.3779 0.665039 65.1279V46.1582C0.665039 38.248 1.51953 31.4609 3.22852 25.7969C4.98633 20.1328 7.50098 15.4453 10.7725 11.7344C14.0439 8.02344 17.9014 5.28906 22.3447 3.53125C26.8369 1.77344 31.793 0.894531 37.2129 0.894531C41.5586 0.894531 45.5869 1.45605 49.2979 2.5791C53.0576 3.70215 56.4512 5.43555 59.4785 7.7793C62.5059 10.123 65.0693 13.0771 67.1689 16.6416C69.3174 20.2061 70.9531 24.4541 72.0762 29.3857C73.248 34.2686 73.834 39.8594 73.834 46.1582ZM50.9824 67.9844V43.1553C50.9824 39.4932 50.7627 36.3193 50.3232 33.6338C49.9326 30.8994 49.3467 28.5801 48.5654 26.6758C47.833 24.7715 46.9053 23.2334 45.7822 22.0615C44.6592 20.8896 43.3652 20.0352 41.9004 19.498C40.4844 18.9121 38.9219 18.6191 37.2129 18.6191C35.0645 18.6191 33.1357 19.0586 31.4268 19.9375C29.7178 20.8164 28.2773 22.208 27.1055 24.1123C25.9336 25.9678 25.0303 28.4824 24.3955 31.6562C23.8096 34.7812 23.5166 38.6143 23.5166 43.1553V67.9844C23.5166 71.6465 23.7119 74.8447 24.1025 77.5791C24.542 80.3135 25.1279 82.6572 25.8604 84.6104C26.6416 86.5146 27.5938 88.0771 28.7168 89.2979C29.8398 90.4697 31.1338 91.3242 32.5986 91.8613C34.0635 92.3984 35.6504 92.667 37.3594 92.667C39.5078 92.667 41.4121 92.252 43.0723 91.4219C44.7324 90.543 46.1484 89.1514 47.3203 87.2471C48.541 85.2939 49.4443 82.7305 50.0303 79.5566C50.665 76.3828 50.9824 72.5254 50.9824 67.9844ZM109.576 45.9385H121.222C124.542 45.9385 127.276 45.3525 129.425 44.1807C131.622 43.0088 133.233 41.3486 134.259 39.2002C135.333 37.0518 135.87 34.5371 135.87 31.6562C135.87 29.166 135.382 26.9443 134.405 24.9912C133.429 23.0381 131.939 21.5 129.938 20.377C127.984 19.2051 125.445 18.6191 122.32 18.6191C120.074 18.6191 117.926 19.083 115.875 20.0107C113.873 20.8896 112.237 22.1836 110.968 23.8926C109.698 25.5527 109.063 27.5547 109.063 29.8984H86.1387C86.1387 23.9414 87.75 18.79 90.9727 14.4443C94.2441 10.0986 98.5654 6.75391 103.937 4.41016C109.356 2.01758 115.265 0.821289 121.661 0.821289C129.034 0.821289 135.504 1.99316 141.07 4.33691C146.686 6.63184 151.031 10.0498 154.107 14.5908C157.232 19.083 158.795 24.6494 158.795 31.29C158.795 34.7568 157.965 38.1016 156.305 41.3242C154.693 44.498 152.374 47.3301 149.347 49.8203C146.368 52.2617 142.804 54.2148 138.653 55.6797C134.552 57.0957 129.986 57.8037 124.957 57.8037H109.576V45.9385ZM109.576 63.1504V51.5049H124.957C130.523 51.5049 135.504 52.1396 139.898 53.4092C144.293 54.6787 148.028 56.5098 151.104 58.9023C154.181 61.2949 156.524 64.2002 158.136 67.6182C159.747 71.0361 160.553 74.8447 160.553 79.0439C160.553 84.0244 159.576 88.4678 157.623 92.374C155.67 96.2803 152.936 99.5762 149.42 102.262C145.904 104.947 141.778 106.998 137.042 108.414C132.306 109.781 127.179 110.465 121.661 110.465C117.218 110.465 112.799 109.854 108.404 108.634C104.01 107.413 100.03 105.558 96.4658 103.067C92.9014 100.528 90.0449 97.3301 87.8965 93.4727C85.748 89.5664 84.6738 84.9277 84.6738 79.5566H107.599C107.599 82.0469 108.233 84.293 109.503 86.2949C110.821 88.248 112.604 89.8105 114.85 90.9824C117.145 92.1055 119.635 92.667 122.32 92.667C125.543 92.667 128.277 92.0811 130.523 90.9092C132.818 89.6885 134.552 88.0283 135.724 85.9287C136.944 83.8291 137.555 81.4121 137.555 78.6777C137.555 74.9668 136.896 71.9883 135.577 69.7422C134.308 67.4473 132.452 65.7871 130.011 64.7617C127.569 63.6875 124.64 63.1504 121.222 63.1504H109.576Z" fill="#E0E0E0"/>
</svg>
