<svg width="473" height="483" viewBox="0 0 473 483" fill="none" xmlns="http://www.w3.org/2000/svg">
  <path d="M435.626 277.898C432.02 248.7 405.427 227.953 376.229 231.559C347.03 235.164 326.283 261.757 329.889 290.956C333.495 320.154 360.088 340.901 389.286 337.295C418.485 333.69 439.232 307.097 435.626 277.898Z" fill="#1C1C1C"/>
  <path d="M292.195 58.1214C266.852 38.3499 230.28 42.8663 210.508 68.2091C190.737 93.5519 195.253 130.124 220.596 149.896C245.939 169.667 282.511 165.151 302.283 139.808C322.054 114.465 317.538 77.8929 292.195 58.1214Z" stroke="#D9D9D9" stroke-miterlimit="10"/>
  <path d="M251.621 104.602L261.178 103.421" stroke="#D9D9D9" stroke-miterlimit="10"/>
  <path d="M255.816 99.2355L256.996 108.793" stroke="#D9D9D9" stroke-miterlimit="10"/>
  <path d="M383.484 222.581L302.196 192.678" stroke="#D9D9D9" stroke-miterlimit="10"/>
  <path d="M387.101 217.944L305.814 188.042" stroke="#D9D9D9" stroke-miterlimit="10"/>
  <path d="M390.722 213.315L309.433 183.403" stroke="#D9D9D9" stroke-miterlimit="10"/>
  <path d="M394.343 208.675L313.054 178.762" stroke="#D9D9D9" stroke-miterlimit="10"/>
  <path d="M397.961 204.034L316.672 174.122" stroke="#D9D9D9" stroke-miterlimit="10"/>
  <path d="M401.578 199.401L320.289 169.489" stroke="#D9D9D9" stroke-miterlimit="10"/>
  <path d="M405.199 194.761L323.91 164.848" stroke="#D9D9D9" stroke-miterlimit="10"/>
  <path d="M408.816 190.124L327.527 160.211" stroke="#D9D9D9" stroke-miterlimit="10"/>
  <path d="M412.427 185.485L331.149 155.581" stroke="#D9D9D9" stroke-miterlimit="10"/>
  <path d="M416.044 180.844L334.767 150.94" stroke="#D9D9D9" stroke-miterlimit="10"/>
  <path d="M419.664 176.206L338.376 146.303" stroke="#D9D9D9" stroke-miterlimit="10"/>
  <path d="M423.281 171.569L341.993 141.667" stroke="#D9D9D9" stroke-miterlimit="10"/>
  <path d="M426.902 166.94L345.613 137.028" stroke="#D9D9D9" stroke-miterlimit="10"/>
  <path d="M430.519 162.3L349.23 132.387" stroke="#D9D9D9" stroke-miterlimit="10"/>
  <path d="M434.14 157.663L352.851 127.75" stroke="#D9D9D9" stroke-miterlimit="10"/>
  <path d="M437.758 153.022L356.469 123.11" stroke="#D9D9D9" stroke-miterlimit="10"/>
  <path d="M118.388 463.77C118.316 463.189 117.787 462.776 117.206 462.848C116.625 462.92 116.212 463.449 116.284 464.03C116.356 464.611 116.885 465.024 117.466 464.952C118.047 464.88 118.46 464.351 118.388 463.77Z" fill="white"/>
  <path d="M126.929 462.715C126.857 462.134 126.328 461.722 125.747 461.793C125.166 461.865 124.753 462.394 124.825 462.975C124.897 463.556 125.426 463.969 126.007 463.897C126.588 463.826 127.001 463.296 126.929 462.715Z" fill="white"/>
  <path d="M135.486 461.657C135.414 461.076 134.885 460.663 134.304 460.735C133.723 460.807 133.31 461.336 133.382 461.917C133.454 462.498 133.983 462.911 134.564 462.839C135.145 462.767 135.558 462.238 135.486 461.657Z" fill="white"/>
  <path d="M142.851 459.692C143.061 459.666 143.274 459.704 143.463 459.801C143.652 459.898 143.807 460.049 143.909 460.235C144.011 460.422 144.054 460.634 144.034 460.845C144.014 461.056 143.93 461.257 143.795 461.42C143.66 461.583 143.479 461.702 143.275 461.762C143.071 461.821 142.854 461.818 142.653 461.752C142.451 461.687 142.273 461.563 142.143 461.396C142.012 461.228 141.935 461.026 141.921 460.814C141.903 460.544 141.989 460.277 142.162 460.068C142.335 459.859 142.581 459.724 142.851 459.692V459.692Z" fill="white"/>
  <path d="M151.396 458.634C151.607 458.607 151.821 458.643 152.011 458.738C152.201 458.834 152.358 458.984 152.461 459.17C152.564 459.356 152.609 459.569 152.59 459.78C152.571 459.992 152.489 460.193 152.354 460.357C152.219 460.522 152.038 460.642 151.834 460.702C151.63 460.762 151.413 460.76 151.211 460.695C151.008 460.63 150.83 460.505 150.699 460.338C150.568 460.17 150.491 459.968 150.477 459.755C150.456 459.486 150.541 459.219 150.712 459.011C150.883 458.802 151.128 458.667 151.396 458.634V458.634Z" fill="white"/>
  <path d="M66.2671 463.395C66.1953 462.814 65.6662 462.401 65.0851 462.473C64.5041 462.545 64.0913 463.074 64.1631 463.655C64.2348 464.236 64.764 464.649 65.345 464.577C65.926 464.505 66.3388 463.976 66.2671 463.395Z" fill="white"/>
  <path d="M74.8139 462.34C74.7422 461.759 74.213 461.347 73.632 461.418C73.051 461.49 72.6382 462.019 72.7099 462.6C72.7817 463.181 73.3108 463.594 73.8918 463.522C74.4729 463.451 74.8857 462.921 74.8139 462.34Z" fill="white"/>
  <path d="M83.3569 461.282C83.2852 460.701 82.756 460.288 82.175 460.36C81.594 460.432 81.1811 460.961 81.2529 461.542C81.3246 462.123 81.8538 462.536 82.4348 462.464C83.0158 462.392 83.4287 461.863 83.3569 461.282Z" fill="white"/>
  <path d="M91.9116 460.227C91.8399 459.646 91.3107 459.233 90.7297 459.305C90.1487 459.377 89.7358 459.906 89.8076 460.487C89.8793 461.068 90.4085 461.481 90.9895 461.409C91.5705 461.337 91.9834 460.808 91.9116 460.227Z" fill="white"/>
  <path d="M99.2767 458.248C99.421 458.216 99.5704 458.214 99.7155 458.243C99.8605 458.272 99.9978 458.331 100.119 458.416C100.24 458.502 100.341 458.611 100.417 458.738C100.493 458.865 100.542 459.006 100.56 459.153C100.578 459.3 100.565 459.449 100.523 459.59C100.48 459.732 100.408 459.863 100.311 459.975C100.215 460.087 100.096 460.177 99.9621 460.241C99.8285 460.304 99.6831 460.339 99.5353 460.343C99.272 460.349 99.0157 460.258 98.8162 460.086C98.6167 459.914 98.4883 459.674 98.456 459.413C98.4237 459.151 98.4899 458.887 98.6416 458.672C98.7933 458.457 99.0197 458.306 99.2767 458.248V458.248Z" fill="white"/>
  <path d="M107.831 457.192C108.039 457.166 108.25 457.203 108.438 457.297C108.625 457.391 108.78 457.539 108.883 457.721C108.987 457.904 109.034 458.113 109.018 458.322C109.003 458.531 108.926 458.731 108.797 458.896C108.668 459.061 108.493 459.184 108.294 459.25C108.095 459.316 107.881 459.321 107.679 459.265C107.477 459.21 107.296 459.095 107.159 458.936C107.022 458.778 106.935 458.582 106.909 458.374C106.891 458.235 106.9 458.095 106.937 457.96C106.973 457.825 107.036 457.699 107.122 457.589C107.208 457.479 107.315 457.387 107.437 457.319C107.558 457.251 107.693 457.208 107.831 457.192V457.192Z" fill="white"/>
  <path d="M117.56 457.059C117.488 456.478 116.959 456.065 116.378 456.137C115.797 456.209 115.384 456.738 115.456 457.319C115.528 457.9 116.057 458.313 116.638 458.241C117.219 458.169 117.632 457.64 117.56 457.059Z" fill="white"/>
  <path d="M126.103 456.005C126.031 455.424 125.502 455.011 124.921 455.082C124.34 455.154 123.927 455.683 123.999 456.264C124.071 456.845 124.6 457.258 125.181 457.186C125.762 457.115 126.175 456.586 126.103 456.005Z" fill="white"/>
  <path d="M134.658 454.95C134.586 454.369 134.057 453.956 133.476 454.028C132.895 454.1 132.482 454.629 132.554 455.21C132.625 455.791 133.155 456.204 133.736 456.132C134.317 456.06 134.729 455.531 134.658 454.95Z" fill="white"/>
  <path d="M142.023 452.969C142.231 452.943 142.442 452.98 142.629 453.074C142.816 453.169 142.971 453.316 143.075 453.499C143.178 453.681 143.225 453.89 143.21 454.099C143.194 454.308 143.117 454.508 142.988 454.673C142.859 454.839 142.684 454.962 142.485 455.028C142.286 455.093 142.072 455.099 141.87 455.043C141.668 454.987 141.487 454.872 141.35 454.714C141.213 454.555 141.126 454.359 141.101 454.151C141.066 453.872 141.144 453.591 141.317 453.369C141.49 453.148 141.744 453.004 142.023 452.969V452.969Z" fill="white"/>
  <path d="M150.567 451.916C150.776 451.888 150.987 451.923 151.176 452.016C151.364 452.109 151.521 452.255 151.626 452.437C151.731 452.619 151.779 452.828 151.765 453.038C151.751 453.248 151.675 453.448 151.546 453.615C151.418 453.781 151.243 453.905 151.044 453.972C150.844 454.038 150.63 454.044 150.427 453.989C150.225 453.933 150.043 453.819 149.906 453.66C149.768 453.501 149.681 453.305 149.655 453.096C149.637 452.959 149.646 452.819 149.682 452.685C149.718 452.551 149.78 452.426 149.865 452.316C149.95 452.206 150.056 452.114 150.176 452.046C150.297 451.977 150.43 451.933 150.567 451.916V451.916Z" fill="white"/>
  <path d="M64.2574 455.754C64.4642 455.729 64.6739 455.765 64.8604 455.858C65.0468 455.951 65.2016 456.097 65.3056 456.277C65.4095 456.458 65.458 456.665 65.4448 456.873C65.4317 457.081 65.3576 457.281 65.2317 457.447C65.1058 457.613 64.9338 457.738 64.7372 457.807C64.5405 457.876 64.328 457.885 64.126 457.834C63.9241 457.782 63.7417 457.673 63.6018 457.518C63.4618 457.364 63.3704 457.172 63.339 456.966C63.3177 456.826 63.3247 456.683 63.3595 456.545C63.3944 456.408 63.4565 456.279 63.5422 456.166C63.6278 456.053 63.7352 455.958 63.8581 455.888C63.9809 455.817 64.1167 455.772 64.2574 455.754V455.754Z" fill="white"/>
  <path d="M72.8002 454.7C73.007 454.674 73.2167 454.71 73.4031 454.803C73.5895 454.896 73.7444 455.042 73.8483 455.223C73.9523 455.403 74.0007 455.611 73.9876 455.819C73.9744 456.026 73.9003 456.226 73.7744 456.392C73.6486 456.558 73.4766 456.683 73.2799 456.752C73.0833 456.821 72.8707 456.83 72.6688 456.779C72.4668 456.728 72.2845 456.618 72.1445 456.464C72.0045 456.309 71.9131 456.117 71.8818 455.911C71.8618 455.771 71.8698 455.629 71.9052 455.492C71.9407 455.355 72.0029 455.227 72.0883 455.114C72.1737 455.001 72.2806 454.907 72.4028 454.836C72.525 454.764 72.66 454.718 72.8002 454.7V454.7Z" fill="white"/>
  <path d="M81.3461 453.642C81.5548 453.604 81.7701 453.63 81.9641 453.716C82.1581 453.802 82.3219 453.944 82.4343 454.124C82.5467 454.304 82.6026 454.513 82.5946 454.725C82.5867 454.937 82.5153 455.142 82.3897 455.313C82.2642 455.484 82.0902 455.613 81.8903 455.684C81.6904 455.755 81.4738 455.765 81.2685 455.711C81.0632 455.658 80.8787 455.544 80.7387 455.385C80.5988 455.225 80.5099 455.027 80.4836 454.817C80.4499 454.548 80.5206 454.276 80.681 454.058C80.8414 453.839 81.0794 453.691 81.3461 453.642V453.642Z" fill="white"/>
  <path d="M89.902 452.586C90.1088 452.561 90.3185 452.597 90.5049 452.69C90.6913 452.783 90.8462 452.929 90.9501 453.11C91.0541 453.29 91.1025 453.497 91.0894 453.705C91.0762 453.913 91.0021 454.113 90.8762 454.279C90.7504 454.445 90.5784 454.57 90.3817 454.639C90.1851 454.708 89.9725 454.717 89.7706 454.666C89.5686 454.614 89.3863 454.505 89.2463 454.35C89.1063 454.196 89.0149 454.004 88.9836 453.798C88.9622 453.658 88.9692 453.515 89.0041 453.377C89.039 453.24 89.1011 453.111 89.1867 452.998C89.2723 452.885 89.3798 452.79 89.5026 452.72C89.6255 452.649 89.7613 452.604 89.902 452.586V452.586Z" fill="white"/>
  <path d="M98.4477 451.529C98.6564 451.491 98.8717 451.517 99.0657 451.603C99.2597 451.688 99.4235 451.83 99.5359 452.01C99.6483 452.19 99.7041 452.4 99.6962 452.612C99.6882 452.824 99.6169 453.028 99.4913 453.199C99.3658 453.37 99.1918 453.5 98.9919 453.571C98.792 453.642 98.5754 453.651 98.3701 453.598C98.1648 453.544 97.9802 453.431 97.8403 453.271C97.7004 453.112 97.6115 452.914 97.5851 452.704C97.5539 452.435 97.6255 452.165 97.7856 451.947C97.9456 451.729 98.1821 451.58 98.4477 451.529V451.529Z" fill="white"/>
  <path d="M107 450.473C107.206 450.448 107.416 450.484 107.603 450.577C107.789 450.67 107.944 450.816 108.048 450.996C108.152 451.177 108.2 451.384 108.187 451.592C108.174 451.8 108.1 451.999 107.974 452.165C107.848 452.331 107.676 452.457 107.479 452.526C107.283 452.594 107.07 452.604 106.868 452.552C106.666 452.501 106.484 452.392 106.344 452.237C106.204 452.083 106.113 451.891 106.081 451.685C106.06 451.545 106.067 451.402 106.102 451.264C106.137 451.127 106.199 450.998 106.284 450.885C106.37 450.772 106.477 450.677 106.6 450.606C106.723 450.536 106.859 450.49 107 450.473V450.473Z" fill="white"/>
  <path d="M115.545 449.417C115.751 449.394 115.96 449.432 116.145 449.526C116.331 449.62 116.484 449.767 116.587 449.948C116.689 450.129 116.736 450.336 116.722 450.543C116.707 450.751 116.632 450.95 116.506 451.115C116.38 451.28 116.207 451.404 116.011 451.472C115.815 451.54 115.602 451.549 115.401 451.497C115.2 451.446 115.018 451.336 114.878 451.182C114.739 451.027 114.648 450.836 114.616 450.63C114.595 450.489 114.602 450.345 114.637 450.207C114.673 450.069 114.736 449.939 114.823 449.826C114.909 449.713 115.018 449.618 115.142 449.548C115.266 449.478 115.403 449.433 115.545 449.417V449.417Z" fill="white"/>
  <path d="M80.518 446.935C80.7272 446.897 80.9429 446.923 81.1372 447.009C81.3315 447.096 81.4954 447.238 81.6076 447.419C81.7197 447.599 81.7751 447.809 81.7664 448.022C81.7576 448.234 81.6853 448.439 81.5586 448.61C81.432 448.78 81.257 448.909 81.0563 448.979C80.8556 449.049 80.6385 449.057 80.4332 449.002C80.2278 448.947 80.0438 448.832 79.9049 448.671C79.766 448.51 79.6787 448.311 79.6543 448.1C79.6209 447.832 79.692 447.561 79.8528 447.345C80.0137 447.128 80.2519 446.981 80.518 446.935V446.935Z" fill="white"/>
  <path d="M89.0748 445.875C89.2833 445.85 89.4947 445.886 89.6822 445.981C89.8698 446.076 90.025 446.224 90.1281 446.407C90.2312 446.59 90.2777 446.799 90.2615 447.009C90.2453 447.218 90.1673 447.418 90.0373 447.583C89.9073 447.748 89.7312 447.871 89.5313 447.936C89.3315 448 89.1169 448.004 88.9148 447.947C88.7128 447.889 88.5323 447.773 88.3964 447.613C88.2605 447.453 88.1752 447.256 88.1514 447.047C88.127 446.909 88.132 446.766 88.1664 446.63C88.2007 446.493 88.2635 446.365 88.3507 446.255C88.4379 446.144 88.5474 446.053 88.6722 445.988C88.797 445.922 88.9342 445.884 89.0748 445.875Z" fill="white"/>
  <path d="M97.6196 444.822C97.8287 444.784 98.0444 444.81 98.2387 444.896C98.433 444.982 98.5969 445.125 98.7091 445.305C98.8213 445.486 98.8766 445.696 98.8679 445.908C98.8592 446.121 98.7868 446.326 98.6602 446.496C98.5336 446.667 98.3585 446.796 98.1578 446.866C97.9571 446.936 97.74 446.944 97.5347 446.889C97.3294 446.834 97.1453 446.719 97.0064 446.558C96.8675 446.397 96.7802 446.198 96.7558 445.987C96.7249 445.719 96.797 445.45 96.9574 445.234C97.1178 445.017 97.3546 444.87 97.6196 444.822V444.822Z" fill="white"/>
  <path d="M106.172 443.766C106.381 443.74 106.592 443.777 106.78 443.872C106.967 443.966 107.123 444.114 107.226 444.298C107.329 444.481 107.375 444.69 107.359 444.9C107.343 445.109 107.265 445.309 107.135 445.474C107.005 445.639 106.829 445.762 106.629 445.826C106.429 445.891 106.215 445.895 106.012 445.838C105.81 445.78 105.63 445.664 105.494 445.504C105.358 445.344 105.273 445.147 105.249 444.938C105.225 444.799 105.23 444.657 105.264 444.52C105.298 444.384 105.361 444.256 105.448 444.145C105.536 444.035 105.645 443.944 105.77 443.878C105.895 443.813 106.032 443.775 106.172 443.766Z" fill="white"/>
  <path d="M114.719 442.712C114.982 442.705 115.239 442.796 115.438 442.968C115.638 443.14 115.766 443.38 115.798 443.641C115.831 443.903 115.764 444.167 115.613 444.382C115.461 444.597 115.235 444.748 114.978 444.806C114.833 444.838 114.684 444.84 114.539 444.811C114.394 444.782 114.257 444.723 114.136 444.638C114.015 444.552 113.913 444.443 113.837 444.316C113.761 444.189 113.712 444.048 113.694 443.901C113.676 443.754 113.689 443.605 113.732 443.464C113.775 443.322 113.847 443.191 113.943 443.079C114.04 442.967 114.159 442.877 114.292 442.813C114.426 442.75 114.571 442.715 114.719 442.712V442.712Z" fill="white"/>
  <path d="M80.8686 441.126C80.7969 440.545 80.2677 440.132 79.6867 440.204C79.1057 440.275 78.6929 440.804 78.7646 441.385C78.8364 441.967 79.3655 442.379 79.9465 442.308C80.5275 442.236 80.9404 441.707 80.8686 441.126Z" fill="white"/>
  <path d="M89.4233 440.071C89.3516 439.49 88.8224 439.077 88.2414 439.149C87.6604 439.221 87.2476 439.75 87.3193 440.331C87.3911 440.912 87.9202 441.325 88.5012 441.253C89.0822 441.181 89.4951 440.652 89.4233 440.071Z" fill="white"/>
  <path d="M96.7876 438.103C96.9967 438.065 97.2124 438.091 97.4067 438.177C97.601 438.264 97.7649 438.406 97.8771 438.587C97.9893 438.767 98.0446 438.977 98.0359 439.19C98.0272 439.402 97.9548 439.607 97.8282 439.778C97.7016 439.948 97.5265 440.077 97.3258 440.147C97.1251 440.217 96.908 440.225 96.7027 440.17C96.4974 440.115 96.3133 440 96.1744 439.839C96.0355 439.678 95.9482 439.479 95.9238 439.268C95.8929 439 95.965 438.731 96.1254 438.515C96.2858 438.298 96.5226 438.151 96.7876 438.103V438.103Z" fill="white"/>
  <path d="M105.344 437.047C105.553 437.021 105.764 437.058 105.952 437.153C106.139 437.248 106.294 437.396 106.398 437.579C106.501 437.762 106.547 437.971 106.531 438.181C106.515 438.39 106.437 438.59 106.307 438.755C106.177 438.92 106.001 439.043 105.801 439.108C105.601 439.172 105.386 439.176 105.184 439.119C104.982 439.061 104.802 438.945 104.666 438.785C104.53 438.625 104.445 438.428 104.421 438.219C104.396 438.08 104.402 437.938 104.436 437.802C104.47 437.665 104.533 437.537 104.62 437.426C104.707 437.316 104.817 437.225 104.942 437.159C105.067 437.094 105.204 437.056 105.344 437.047V437.047Z" fill="white"/>
  <path d="M115.068 436.903C114.996 436.322 114.467 435.909 113.886 435.981C113.305 436.053 112.892 436.582 112.964 437.163C113.036 437.744 113.565 438.157 114.146 438.085C114.727 438.013 115.14 437.484 115.068 436.903Z" fill="white"/>
  <path d="M123.615 435.848C123.543 435.267 123.014 434.854 122.433 434.926C121.852 434.998 121.439 435.527 121.511 436.108C121.582 436.689 122.112 437.102 122.693 437.03C123.274 436.958 123.686 436.429 123.615 435.848Z" fill="white"/>
  <path d="M132.167 434.79C132.096 434.209 131.567 433.796 130.986 433.868C130.405 433.939 129.992 434.469 130.063 435.05C130.135 435.631 130.664 436.043 131.245 435.972C131.826 435.9 132.239 435.371 132.167 434.79Z" fill="white"/>
  <path d="M156.178 149.628C151.368 110.678 115.894 83.0025 76.9446 87.8125C37.9952 92.6225 10.3196 128.097 15.1296 167.046C19.9396 205.995 55.4136 233.671 94.3631 228.861C133.313 224.051 160.988 188.577 156.178 149.628Z" fill="#D83838"/>
  <path d="M397.436 284.364C365.693 259.599 319.883 265.256 295.118 297C270.352 328.743 276.009 374.553 307.753 399.319C339.497 424.084 385.307 418.427 410.072 386.683C434.837 354.939 429.18 309.129 397.436 284.364Z" stroke="#D9D9D9" stroke-width="2" stroke-miterlimit="10"/>
  <path d="M397.735 296.314C370.629 275.167 331.512 279.997 310.364 307.104C289.217 334.21 294.048 373.328 321.154 394.475C348.26 415.622 387.378 410.792 408.525 383.685C429.672 356.579 424.842 317.461 397.735 296.314Z" stroke="#D9D9D9" stroke-width="1.8" stroke-miterlimit="10"/>
  <path d="M417.512 342.625C414.019 314.342 388.26 294.245 359.977 297.738C331.694 301.231 311.597 326.99 315.09 355.273C318.583 383.556 344.342 403.653 372.625 400.16C400.908 396.667 421.005 370.908 417.512 342.625Z" stroke="#D9D9D9" stroke-width="1.6" stroke-miterlimit="10"/>
  <path d="M413.792 347.486C411.021 325.046 390.583 309.101 368.143 311.872C345.703 314.643 329.758 335.081 332.529 357.521C335.3 379.961 355.738 395.906 378.178 393.135C400.618 390.363 416.563 369.926 413.792 347.486Z" stroke="#D9D9D9" stroke-width="1.4" stroke-miterlimit="10"/>
  <path d="M410.079 352.346C408.029 335.743 392.907 323.946 376.305 325.996C359.702 328.047 347.905 343.168 349.956 359.77C352.006 376.373 367.127 388.17 383.73 386.12C400.332 384.069 412.129 368.948 410.079 352.346Z" stroke="#D9D9D9" stroke-width="1.2" stroke-miterlimit="10"/>
  <path d="M406.37 357.221C405.04 346.456 395.236 338.807 384.471 340.136C373.706 341.466 366.056 351.27 367.386 362.035C368.715 372.801 378.52 380.45 389.285 379.12C400.05 377.791 407.699 367.986 406.37 357.221Z" stroke="#D9D9D9" stroke-miterlimit="10"/>
  <mask id="mask0_1_180" style="mask-type:alpha" maskUnits="userSpaceOnUse" x="45" y="127" width="283" height="283">
    <circle cx="186.312" cy="268.766" r="141" transform="rotate(-97.04 186.312 268.766)" fill="#C4C4C4"/>
  </mask>
  <g mask="url(#mask0_1_180)">
    <path d="M87.86 448.989C81.493 418.238 66.658 390.96 60.1326 359.987C55.5138 338.088 47.7331 317.184 44.3042 295.047C35.0578 235.431 29.4245 174.965 22.0837 115.114" stroke="#D8D8D8" stroke-width="0.75" stroke-miterlimit="10"/>
    <path d="M92.6523 448.468C85.8755 418.069 72.7542 390.308 66.1091 359.752C61.2565 337.429 52.5416 316.63 49.0143 293.941C39.7946 234.705 34.3812 174.061 27.4865 114.477" stroke="#D8D8D8" stroke-width="0.75" stroke-miterlimit="10"/>
    <path d="M96.5001 448.114C89.9122 418.266 79.4058 389.487 72.4048 359.721C66.968 336.582 56.3232 315.74 52.6409 292.123C48.6578 266.478 50.125 240.664 47.2223 214.956C43.4025 181.169 36.8337 147.722 32.8826 113.851" stroke="#D8D8D8" stroke-width="0.75" stroke-miterlimit="10"/>
    <path d="M99.5674 447.917C93.5691 418.682 86.4022 388.715 78.9595 359.859C72.661 335.618 59.2728 314.671 55.3731 289.621C51.4223 263.911 56.0432 238.422 53.9319 212.677C51.1735 179.162 42.382 146.484 38.2651 113.147" stroke="#D8D8D8" stroke-width="0.75" stroke-miterlimit="10"/>
    <path d="M102.018 447.836C96.8795 418.958 93.195 388.47 85.7205 360.173C78.9231 334.422 61.4218 313.539 57.4243 286.717C53.5482 260.797 61.9067 235.874 60.8932 210.044C59.5952 177.014 48.0999 145.122 43.6781 112.498" stroke="#D8D8D8" stroke-width="0.75" stroke-miterlimit="10"/>
    <path d="M104.024 447.85C99.9676 419.413 100.964 388.155 92.6327 360.588C84.4234 333.439 62.9833 312.157 58.9241 283.448C55.2371 257.182 67.6826 233.044 68.0151 207.098C68.4202 174.805 53.8653 143.513 49.0576 111.843" stroke="#D8D8D8" stroke-width="0.75" stroke-miterlimit="10"/>
    <path d="M105.744 447.919C102.867 419.648 108.94 388.288 99.6266 361.014C89.9196 332.589 64.0341 310.475 60.1501 279.92C56.7416 253.136 73.4575 229.963 75.2773 203.903C77.44 172.461 59.6917 141.664 54.4605 111.135" stroke="#D8D8D8" stroke-width="0.75" stroke-miterlimit="10"/>
    <path d="M107.357 448.002C105.701 419.58 117.097 388.983 106.671 361.514C95.3973 331.822 65.3569 308.699 61.22 276.342C57.76 249.222 79.2652 226.646 82.5782 200.684C86.5132 170.212 65.4873 139.8 59.8612 110.478" stroke="#D8D8D8" stroke-width="0.75" stroke-miterlimit="10"/>
    <path d="M109.008 448.093C108.574 419.209 125.35 390.154 113.691 362C100.941 331.211 66.5097 306.797 62.3727 272.807C58.9704 245.257 85.0292 223.328 89.8689 197.49C95.4088 167.938 71.2838 137.969 65.2813 109.842" stroke="#D8D8D8" stroke-width="0.75" stroke-miterlimit="10"/>
    <path d="M110.874 448.163C111.594 418.662 133.577 391.634 120.634 362.461C106.547 330.718 67.8207 304.899 63.7169 269.465C60.4703 241.462 90.8781 220.155 97.0262 194.467C103.969 165.669 76.9704 136.337 70.6341 109.179" stroke="#D8D8D8" stroke-width="0.75" stroke-miterlimit="10"/>
    <path d="M113.14 448.085C114.858 417.937 141.618 393.12 127.472 362.775C112.254 330.195 69.5757 303.051 65.547 266.348C62.4202 237.846 96.7638 217.242 104.083 191.652C112.176 163.356 82.6394 134.851 76.0452 108.461" stroke="#D8D8D8" stroke-width="0.75" stroke-miterlimit="10"/>
    <path d="M115.944 447.942C118.379 417.151 149.359 394.524 134.119 362.984C126.377 346.962 112.978 332.213 102.064 318.406C90.436 303.721 70.0758 283.595 67.9905 263.69C64.934 234.615 102.698 214.868 110.909 189.239C119.889 161.187 88.2126 133.712 81.4477 107.816" stroke="#D8D8D8" stroke-width="0.75" stroke-miterlimit="10"/>
    <path d="M119.464 447.646C122.197 416.255 156.558 395.709 140.521 363.018C132.444 346.574 118.238 331.4 106.847 317.33C94.8404 302.51 73.3137 281.913 71.2353 261.575C68.2022 231.792 108.648 213.195 117.486 187.346C127.018 159.277 93.708 132.85 86.8819 107.193" stroke="#D8D8D8" stroke-width="0.75" stroke-miterlimit="10"/>
    <path d="M123.852 447.187C126.34 415.201 163.062 396.479 146.617 362.851C138.437 346.138 123.553 330.625 111.888 316.448C99.581 301.483 77.5855 280.843 75.4828 260.145C72.3828 229.494 114.607 212.41 123.617 185.986C133.299 157.586 98.9589 132.284 92.2261 106.484" stroke="#D8D8D8" stroke-width="0.75" stroke-miterlimit="10"/>
    <path d="M129.192 446.629C131.725 414.758 168.324 395.85 151.824 362.44C143.535 345.66 128.843 330.063 117.205 315.701C105.02 300.661 83.0853 279.862 80.8137 259.265C77.4335 228.548 120.218 211.758 129.179 185.35C138.925 156.65 104.256 131.862 97.6336 105.817" stroke="#D8D8D8" stroke-width="0.75" stroke-miterlimit="10"/>
    <path d="M134.996 446.553C137.719 415.163 171.811 394.559 155.652 362.024C147.296 345.192 133.547 329.488 122.227 314.765C110.585 299.547 88.9674 278.054 86.6284 257.808C83.1553 227.808 125.616 210.675 134.589 185.021C144.624 156.295 109.631 131.255 102.991 105.142" stroke="#D8D8D8" stroke-width="0.75" stroke-miterlimit="10"/>
    <path d="M141.115 446.967C143.544 415.805 174.027 393.642 158.726 361.857C150.582 344.857 137.836 328.95 127.029 313.649C116.035 298.059 95.1511 275.81 92.9283 255.772C89.68 226.449 131.277 209.835 140.264 184.856C150.561 156.218 115.066 130.534 108.423 104.482" stroke="#D8D8D8" stroke-width="0.75" stroke-miterlimit="10"/>
    <path d="M147.509 447.769C149.209 416.747 175.22 392.959 161.069 361.758C153.285 344.583 141.688 328.261 131.579 312.411C121.295 296.29 101.55 273.226 99.5712 253.288C96.7821 224.583 137.033 209.144 146.031 184.828C156.557 156.323 120.447 129.829 113.789 103.818" stroke="#D8D8D8" stroke-width="0.75" stroke-miterlimit="10"/>
    <path d="M154.105 448.871C154.773 417.966 175.659 392.424 162.973 361.737C155.775 344.248 145.346 327.52 136.082 311.081C126.634 294.303 108.234 270.468 106.685 250.497C104.494 222.313 143.129 208.716 151.985 184.891C162.587 156.507 125.908 129.157 119.189 103.144" stroke="#D8D8D8" stroke-width="0.75" stroke-miterlimit="10"/>
    <path d="M160.837 450.197C160.286 419.463 175.641 392.044 164.523 361.819C157.971 344.007 148.821 326.789 140.542 309.765C132.019 292.228 115.243 267.679 114.153 247.591C112.66 219.18 150.311 209.2 158.07 185.057C167.583 155.448 131.689 129.642 124.608 102.486" stroke="#D8D8D8" stroke-width="0.75" stroke-miterlimit="10"/>
    <path d="M167.644 451.613C165.839 422.797 175.38 394.232 167.186 365.903C160.381 342.38 149.625 319.818 140.45 297.172C134.286 281.932 123.014 262.044 122.871 245.225C122.644 215.972 158.506 208.802 165.133 182.754C172.334 154.418 136.827 127.98 130.009 101.819" stroke="#D8D8D8" stroke-width="0.75" stroke-miterlimit="10"/>
    <path d="M174.472 453.068C171.427 424.082 175.5 394.651 168.414 366.155C162.443 342.277 153.637 319.031 145.918 295.691C140.662 279.805 130.841 259.677 131.001 242.619C131.262 214.374 164.81 208.216 171.292 183.112C178.596 154.874 142.227 127.253 135.398 101.164" stroke="#D8D8D8" stroke-width="0.75" stroke-miterlimit="10"/>
    <path d="M181.244 454.437C177.013 425.155 175.858 395.402 169.807 366.395C164.799 342.166 157.823 318.311 151.652 294.367C147.364 277.838 139.055 257.634 139.475 240.312C140.1 213.141 171.223 207.584 177.462 183.448C184.767 155.219 147.718 126.665 140.798 100.486" stroke="#D8D8D8" stroke-width="0.75" stroke-miterlimit="10"/>
    <path d="M187.911 455.649C182.609 425.934 176.612 396.377 171.557 366.622C167.401 342.106 162.425 317.722 157.738 293.313C154.453 276.176 147.716 256.06 148.286 238.478C149.089 212.343 177.771 207.007 183.623 183.734C190.778 155.353 153.208 126.087 146.193 99.7989" stroke="#D8D8D8" stroke-width="0.75" stroke-miterlimit="10"/>
    <path d="M194.406 456.609C188.259 426.415 177.924 397.393 173.831 366.783C170.526 342.062 167.44 317.314 164.244 292.579C161.971 274.904 156.796 255.109 157.41 237.239C158.336 212.096 184.414 206.478 189.74 184.006C196.613 155.216 158.721 125.788 151.592 99.1513" stroke="#D8D8D8" stroke-width="0.75" stroke-miterlimit="10"/>
    <path d="M200.66 457.226C193.993 426.572 180.004 398.314 176.817 366.877C172.551 324.823 165.57 278.983 166.893 236.743C167.643 212.548 191.197 205.992 195.807 184.163C202.021 154.689 164.318 125.731 157.014 98.4912" stroke="#D8D8D8" stroke-width="0.75" stroke-miterlimit="10"/>
    <path d="M206.624 457.38C200.202 427.653 183.751 401.079 180.928 370.545C176.888 326.901 175.986 280.35 176.471 236.551C176.735 212.981 199.655 203.984 202.022 181.867C205.206 151.76 169.832 125.92 162.422 97.8165" stroke="#D8D8D8" stroke-width="0.75" stroke-miterlimit="10"/>
    <path d="M212.22 457.01C206.263 426.974 187.974 401.181 185.752 370.29C182.617 326.716 187.106 281.878 186.667 238.182C186.438 215.036 206.396 203.593 207.735 181.634C209.644 150.424 175.469 126.291 167.78 97.1538" stroke="#D8D8D8" stroke-width="0.75" stroke-miterlimit="10"/>
    <path d="M217.579 455.996C211.183 426.236 194.113 399.385 191.903 368.756C188.83 326.332 191.549 282.257 191.706 239.717C191.781 216.583 211.089 202.813 212.278 180.62C213.929 149.846 181.118 125.181 173.172 96.4885" stroke="#D8D8D8" stroke-width="0.75" stroke-miterlimit="10"/>
    <path d="M222.864 454.344C216.159 423.382 200.872 394.407 198.902 362.538C196.457 323 195.919 282.007 196.45 242.413C196.756 219.352 213.43 203.751 215.453 181.626C218.309 150.33 186.692 124.722 178.566 95.7998" stroke="#D8D8D8" stroke-width="0.75" stroke-miterlimit="10"/>
    <path d="M228.105 452.165C221.77 421.016 209.606 390.809 206.904 359.061C203.705 321.651 200.735 282.671 200.765 245.135C200.782 221.363 216.312 203.032 217.907 179.962C220.015 148.98 191.791 124.082 183.981 95.1912" stroke="#D8D8D8" stroke-width="0.75" stroke-miterlimit="10"/>
    <path d="M233.299 449.571C221.334 383.036 206.403 316.061 204.906 248.133C204.365 223.352 218.529 202.277 219.599 177.983C220.954 147.507 196.583 123.211 189.361 94.5097" stroke="#D8D8D8" stroke-width="0.75" stroke-miterlimit="10"/>
    <path d="M238.463 446.677C233.653 414.504 229.963 382.172 224.738 350.06C219.46 317.683 210.745 284.078 209.016 251.313C207.657 225.374 219.445 201.459 220.789 175.79C222.327 146.471 201.071 121.699 194.757 93.8231" stroke="#D8D8D8" stroke-width="0.75" stroke-miterlimit="10"/>
    <path d="M243.601 443.593C239.834 410.888 241.169 377.231 234.236 344.998C227.839 315.227 215.969 284.954 213.249 254.598C210.821 227.431 220.688 200.61 221.664 173.516C222.639 145.182 205.513 120.485 200.156 93.176" stroke="#D8D8D8" stroke-width="0.75" stroke-miterlimit="10"/>
    <path d="M248.743 440.417C246.098 407.493 252.705 371.814 243.905 339.72C236.434 312.43 221.41 285.902 217.735 257.78C214.028 229.391 222.123 199.644 222.41 171.124C222.693 143.803 209.943 119.13 205.545 92.4881" stroke="#D8D8D8" stroke-width="0.75" stroke-miterlimit="10"/>
    <path d="M253.876 437.266C252.332 403.551 264.602 363.958 252.575 331.76C243.89 308.509 225.749 285.871 221.968 261.209C217.658 232.753 223.358 200.914 223.276 172.097C223.198 144.619 214.488 118.883 210.944 91.8229" stroke="#D8D8D8" stroke-width="0.75" stroke-miterlimit="10"/>
    <path d="M259.026 434.25C258.477 400.271 275.008 359.196 261.976 326.94C253.155 305.116 231.847 287.596 227.372 264.006C221.71 234.478 225.574 200.085 224.519 169.917C223.589 143.461 218.958 117.463 216.344 91.1548" stroke="#D8D8D8" stroke-width="0.75" stroke-miterlimit="10"/>
    <path d="M264.204 431.484C264.453 398.253 285.769 353.584 271.076 322.48C261.519 302.209 238.581 288.95 233.477 266.305C226.6 235.747 228.372 199.265 226.265 167.837C224.523 142.066 223.612 116.253 221.75 90.4866" stroke="#D8D8D8" stroke-width="0.75" stroke-miterlimit="10"/>
    <path d="M269.418 429.077C270.172 396.589 295.608 348.65 279.739 318.548C269.623 299.374 245.999 290.109 240.459 267.931C232.527 236.335 231.969 198.528 228.706 165.902C226.159 140.382 228.506 115.325 227.129 89.8219" stroke="#D8D8D8" stroke-width="0.75" stroke-miterlimit="10"/>
    <path d="M274.68 427.131C275.32 405.469 280.874 386.395 286.216 365.522C290.303 349.662 296.344 330.699 287.804 315.309C277.501 296.752 254.29 290.822 248.474 268.779C239.813 236.013 236.581 198.013 232.087 164.229C228.658 138.586 233.723 114.655 232.544 89.1972" stroke="#D8D8D8" stroke-width="0.75" stroke-miterlimit="10"/>
    <path d="M280 425.756C280.542 403.703 286.672 384.729 292.481 363.638C296.765 348.227 303.347 328.259 295.047 312.941C285.05 294.487 263.285 290.807 257.57 268.6C248.794 234.498 242.36 197.569 236.486 162.736C232.115 136.806 239.241 114.142 237.878 88.4957" stroke="#D8D8D8" stroke-width="0.75" stroke-miterlimit="10"/>
    <path d="M285.357 425.074C285.819 402.951 292.046 384.015 297.971 362.889C302.266 347.567 308.819 327.362 300.932 311.962C291.451 293.445 271.003 289.904 265.502 267.802C256.823 233.175 248.575 197.224 241.838 162.095C236.836 135.951 244.765 113.671 243.277 87.829" stroke="#D8D8D8" stroke-width="0.75" stroke-miterlimit="10"/>
    <path d="M290.857 425.062C291.41 403.189 297.261 384.148 302.846 363.125C306.981 347.652 313.206 327.809 305.493 312.348C296.308 293.945 276.651 289.057 270.985 267.489C262.044 233.438 253.668 198.25 246.501 163.708C240.932 136.888 249.663 113.763 248.712 87.1293" stroke="#D8D8D8" stroke-width="0.75" stroke-miterlimit="10"/>
    <path d="M296.39 425.637C297.099 392.54 324.28 345.021 309.418 313.605C300.718 295.213 282.243 288.557 276.475 267.556C267.346 234.425 258.374 200.69 250.49 167.204C243.935 139.337 254.25 114.345 254.115 86.4912" stroke="#D8D8D8" stroke-width="0.75" stroke-miterlimit="10"/>
    <path d="M301.961 426.69C302.336 393.172 326.863 347.501 312.858 315.517C304.815 297.063 287.879 288.263 281.98 267.832C272.755 235.882 262.846 204.026 254.077 171.939C246.199 143.066 258.677 114.945 259.499 85.7846" stroke="#D8D8D8" stroke-width="0.75" stroke-miterlimit="10"/>
    <path d="M307.579 428.106C307.409 394.09 328.864 350.633 315.919 317.933C308.611 299.55 293.966 287.766 287.532 268.389C277.501 238.15 267.231 207.941 257.557 177.578C248.135 148.04 263.114 115.368 264.905 85.1606" stroke="#D8D8D8" stroke-width="0.75" stroke-miterlimit="10"/>
    <path d="M313.214 429.767C312.41 395.276 330.438 354.086 318.72 320.72C312.237 302.246 299.418 287.949 293.095 269.052C283.439 240.228 271.684 212.026 261.15 183.512C250.17 153.753 267.687 115.367 270.303 84.4935" stroke="#D8D8D8" stroke-width="0.75" stroke-miterlimit="10"/>
    <path d="M318.863 431.547C317.247 397.246 330.935 359.756 322.046 326.122C316.885 306.607 304.354 289.585 298.153 270.128C289.012 241.473 273.388 214.988 263.959 186.448C254.078 156.534 272.533 114.727 275.686 83.797" stroke="#D8D8D8" stroke-width="0.75" stroke-miterlimit="10"/>
    <path d="M324.527 433.416C322.156 399.128 332.398 363.021 324.589 329.243C320.032 309.554 309.855 290.376 303.631 271.063C294.794 243.65 278.381 218.764 268.551 191.715C262.597 175.321 268.071 158.13 271.409 141.425C275.287 121.994 278.89 102.868 281.101 83.1581" stroke="#D8D8D8" stroke-width="0.75" stroke-miterlimit="10"/>
    <path d="M330.175 435.186C327.082 401.078 334.002 365.975 327.204 332.224C323.183 312.226 315.32 291.312 309.132 271.884C300.748 245.603 281.41 222.247 274.066 195.748C264.77 162.244 282.543 117.116 286.489 82.4913" stroke="#D8D8D8" stroke-width="0.75" stroke-miterlimit="10"/>
    <path d="M335.811 436.769C332.101 402.969 335.92 368.541 330.026 334.93C326.144 313.852 321.015 293.023 314.665 272.552C306.804 246.751 288.02 223.972 280.79 198.063C271.27 163.972 288.137 117.132 291.878 81.8273" stroke="#D8D8D8" stroke-width="0.75" stroke-miterlimit="10"/>
    <path d="M341.371 438.057C334.485 382.704 335.268 327.199 320.198 272.967C313.03 247.151 295.753 224.004 288.943 198.154C279.772 163.295 294.155 117.154 297.237 81.1654" stroke="#D8D8D8" stroke-width="0.75" stroke-miterlimit="10"/>
    <path d="M346.961 438.927C339.618 383.953 339.507 326.674 326.415 272.551C319.86 245.5 303.763 220.323 298.05 193.068C290.733 158.303 300.969 115.858 302.697 80.4898" stroke="#D8D8D8" stroke-width="0.75" stroke-miterlimit="10"/>
    <path d="M352.467 439.287C345.058 383.938 342.088 327.416 331.867 272.475C326.516 243.663 315.028 215.831 310.219 186.923C304.46 152.368 308.519 114.818 308.077 79.828" stroke="#D8D8D8" stroke-width="0.75" stroke-miterlimit="10"/>
    <path d="M357.904 439.018C342.972 319.084 327.166 199.247 313.465 79.1612" stroke="#D8D8D8" stroke-width="0.75" stroke-miterlimit="10"/>
  </g>
</svg>
