<svg width="1139" height="613" viewBox="0 0 1139 613" fill="none" xmlns="http://www.w3.org/2000/svg">
  <path d="M49.1233 461.499C93.6541 419.44 153.072 392.894 214.986 374.392C276.574 356.029 340.494 344.871 403.282 330.298C464.021 316.2 524.361 298.175 576.812 267.495C601.974 252.619 625.14 235.424 645.874 216.234C669.986 194.169 690.45 169.513 713.475 146.623C759.762 100.519 813.353 60.0525 872.667 26.4179C880.289 22.1013 887.987 17.8881 895.761 13.7781C896.149 13.5699 895.721 13.078 895.37 13.2839C835.056 45.2668 779.875 83.4365 731.843 128.064C719.52 139.542 707.632 151.319 696.176 163.393C684.851 175.352 674.114 187.616 662.489 199.334C641.733 220.268 618.896 239.805 593.369 256.525C542.405 289.994 482.476 310.36 421.298 325.421C358.701 340.83 294.734 351.676 232.662 368.751C172.052 385.41 112.416 408.52 65.5048 446.332C59.6317 451.065 54.0091 456.008 48.5962 461.117C48.2795 461.41 48.8076 461.808 49.1242 461.515L49.1233 461.499Z" fill="white"/>
  <path d="M45.0927 465.327C69.2074 444.634 97.0381 427.062 126.074 411.712C155.541 396.178 186.661 383.077 218.997 372.595C251.334 362.085 284.898 354.653 318.531 348.105C352.834 341.43 387.579 336.295 421.6 328.53C480.403 315.074 535.504 291.455 583.409 259.17C607.749 242.696 630.369 224.326 651.657 205.017C675.641 183.226 697.317 159.76 721.869 138.38C769.249 97.133 823.004 61.8234 879.687 30.3331C887.074 26.2294 894.483 22.1916 901.916 18.2197C902.313 18.011 901.875 17.5116 901.524 17.7175C844.369 48.2985 789.422 82.1107 740.498 121.864C715.494 142.18 693.018 164.175 670.43 186.385C648.151 208.387 623.998 228.979 598.173 247.989C552.274 281.613 498.978 307.105 441.517 322.921C407.521 332.267 372.235 337.425 337.453 343.902C303.691 350.199 269.957 356.995 237.128 366.419C174.226 384.478 113.499 412.771 63.2214 450.051C56.7879 454.816 50.569 459.775 44.5646 464.929C44.238 465.215 44.7661 465.612 45.0927 465.327Z" fill="white"/>
  <path d="M41.0617 469.159C67.5066 448.55 97.2932 430.686 127.271 413.99C156.095 397.935 186.375 383.168 218.232 371.934C249.417 360.934 282.313 353.831 315.22 348.068C349.39 342.055 384.183 338.75 418.159 331.859C449.78 325.444 480.02 313.925 508.345 300.288C533.053 288.363 556.057 274.178 577.701 258.545C601.484 241.352 624.166 222.915 646.169 204.097C671.066 182.753 694.312 160.068 720.278 139.584C770.655 99.8997 827.563 66.7008 885.081 35.1461C892.715 30.9365 900.375 26.7766 908.06 22.6663C908.448 22.4501 908.019 21.9582 907.669 22.1641C849.317 53.6379 791.197 86.1479 738.81 124.681C712.83 143.785 689.369 164.731 665.827 185.939C642.621 206.845 618.28 226.921 593.167 246.177C547.951 280.831 495.993 310.983 437.625 326.672C403.335 335.89 367.297 338.936 332.202 344.599C299.599 349.86 267.026 356.12 235.63 365.607C204.375 375.053 174.656 388.327 146.307 403.023C115.833 418.751 86.6255 436.211 58.8901 455.281C52.629 459.621 46.5104 464.117 40.5341 468.769C40.1872 469.032 40.7247 469.428 41.0622 469.167L41.0617 469.159Z" fill="white"/>
  <path d="M36.9628 473.011C64.9266 453.291 95.277 435.782 125.016 418.083C153.576 401.09 183.2 384.205 215.065 371.954C245.598 360.248 278.34 353.276 311.027 348.155C327.527 345.527 344.114 343.351 360.787 341.627C378.369 339.803 396.006 338.266 413.407 335.297C445.492 329.816 475.387 317.614 503.252 303.092C526.952 290.732 548.685 275.975 569.307 260.151C593.48 241.611 616.862 222.261 640.343 203.131C666.737 181.645 692.037 159.213 720.222 139.359C773.194 102.036 832.348 71.4117 890.244 40.1258C898.253 35.803 906.239 31.4735 914.203 27.1372C914.601 26.9284 914.21 26.4262 913.822 26.6344C854.967 58.6298 794.664 89.3363 739.272 125.669C711.727 143.734 686.767 163.821 661.985 184.512C637.203 205.202 611.691 225.62 586.317 245.958C565.369 262.753 543.815 279.098 520.109 293.025C493.889 308.462 464.477 322.581 433.918 330.389C399.714 339.109 363.557 340.094 328.576 344.928C296.582 349.338 264.575 355.186 234.014 364.762C202.722 374.565 173.839 389.429 146.118 405.122C116.082 422.128 86.5471 440.058 57.6601 458.483C50.5179 463.022 43.4781 467.684 36.611 472.531C36.2631 472.777 36.6542 473.279 37.0021 473.033L36.9628 473.011Z" fill="white"/>
  <path d="M32.9341 476.864C47.5764 467.547 62.7518 458.877 77.7748 450.047C93.3677 440.853 108.603 431.251 123.78 421.613C151.837 403.842 180.258 385.096 211.789 372.017C241.439 359.708 273.96 352.87 306.218 348.234C322.285 345.924 338.383 344.137 354.592 342.965C372.358 341.671 390.197 341.003 407.864 338.673C468.894 330.588 520.537 295.667 563.81 259.874C587.459 240.347 610.694 220.602 634.967 201.661C662.103 180.471 688.843 158.867 718.467 140.165C745.957 122.806 775.13 107.522 804.333 92.405C834.865 76.5654 865.594 60.981 895.926 44.8138C904.086 40.4608 912.234 36.0493 920.368 31.5793C920.434 31.5297 920.477 31.4619 920.489 31.3884C920.501 31.3148 920.481 31.2406 920.434 31.1793C920.386 31.1181 920.313 31.074 920.229 31.0552C920.145 31.0364 920.055 31.0442 919.977 31.0771C888.773 48.1667 857.04 64.5117 825.307 80.8567C796.008 95.9386 766.558 110.9 738.303 127.399C709.319 144.304 683.076 163.456 657.129 183.608C631.182 203.761 605.395 224.057 580.416 245.123C559.916 262.409 539.343 279.739 516.302 294.612C504.248 302.417 491.591 309.519 478.42 315.867C462.574 323.485 446.157 330.45 428.567 334.439C394.374 342.198 358.335 341.263 323.501 345.361C291.85 349.106 260.075 354.682 230.106 364.603C199 374.824 171.302 391.234 144.474 407.852C129.818 416.928 115.366 426.25 100.751 435.371C85.519 444.876 69.8565 453.856 54.3577 463.029C46.9854 467.379 39.7023 471.789 32.5329 476.354C32.1656 476.593 32.5758 477.094 32.9241 476.856L32.9341 476.864Z" fill="white"/>
  <path d="M28.9033 480.69C43.8102 472.158 59.0674 464.081 73.9942 455.563C89.9085 446.487 105.191 436.706 120.236 426.606C147.364 408.412 173.922 388.289 204.228 373.956C233.207 360.258 266.275 353.484 298.608 349.006C314.34 346.828 330.222 345.102 346.103 344.014C364.014 342.776 381.993 343.028 399.9 341.709C417.596 340.371 435.201 337.294 451.402 330.704C466.148 324.664 480.289 317.585 493.672 309.543C517.227 295.472 537.727 278.355 557.553 260.632C580.642 239.991 603.783 219.605 628.817 200.636C656.828 179.428 685.184 158.409 716.509 140.78C745.406 124.51 776.046 110.691 806.306 96.4011C838.488 81.2331 870.524 65.8395 901.82 49.3583C910.119 44.9918 918.36 40.5507 926.542 36.0348C926.93 35.8267 926.501 35.3267 926.151 35.5407C894.289 53.1124 861.545 69.4352 828.455 85.2208C798.192 99.6318 767.49 113.358 737.818 128.598C706.666 144.603 678.44 163.256 650.874 183.422C624.167 202.956 598.385 223.155 574.1 244.859C553.801 262.989 533.931 281.595 511.092 297.498C498.972 305.937 486.102 313.563 472.605 320.306C455.932 328.626 438.838 335.589 419.834 338.699C402.002 341.644 383.853 341.895 365.807 342.462C349.245 342.976 332.778 344.308 316.311 346.133C284.808 349.651 252.97 354.948 223.412 365.402C192.864 376.196 166.657 394.321 140.962 411.746C126.29 421.71 111.623 431.747 96.5548 441.283C81.4867 450.818 65.8318 459.434 50.1303 468.07C42.8985 472.049 35.6676 476.044 28.5093 480.14C28.4706 480.162 28.4372 480.191 28.4112 480.224C28.3853 480.257 28.3671 480.294 28.3579 480.333C28.3486 480.372 28.3484 480.411 28.3573 480.45C28.3662 480.488 28.3839 480.525 28.4096 480.557C28.4352 480.59 28.4683 480.618 28.5068 480.639C28.5453 480.66 28.5886 480.675 28.6342 480.682C28.6797 480.689 28.7266 480.689 28.7722 480.681C28.8178 480.672 28.8613 480.656 28.9 480.634L28.9033 480.69Z" fill="white"/>
  <path d="M24.8761 484.522C40.3602 476.578 56.0311 468.897 71.1947 460.519C87.498 451.399 103.154 441.461 118.076 430.758C144.671 411.917 169.734 390.322 199.334 374.835C227.916 359.875 261.574 352.583 294.289 348.446C309.77 346.505 325.35 345.291 340.957 344.81C359.031 344.249 377.198 345.289 395.264 344.567C413.329 343.845 431.226 341.203 447.731 334.596C462.962 328.548 477.463 320.579 490.88 311.979C514.238 296.999 533.867 278.657 553.049 260.01C575.608 238.116 598.617 217.092 624.522 198.024C652.766 177.222 682.02 157.242 714.283 141.157C744.849 125.896 777.251 113.534 808.89 100.02C842.492 85.6823 875.603 70.5899 907.688 53.9096C916.076 49.538 924.394 45.0628 932.643 40.4839C932.709 40.4343 932.752 40.3665 932.764 40.2929C932.776 40.2194 932.756 40.1451 932.709 40.0839C932.661 40.0227 932.588 39.9786 932.504 39.9598C932.42 39.941 932.33 39.9488 932.251 39.9817C899.73 58.0114 865.947 74.3458 831.509 89.5555C800.323 103.325 768.354 115.752 737.252 129.662C721.163 136.788 705.529 144.65 690.421 153.211C674.74 162.192 660.07 172.181 645.456 182.32C618.191 201.273 592.443 221.406 569.004 243.722C549.365 262.387 530.777 281.912 508.762 298.696C482.541 318.727 450.425 337.517 415.211 342.275C397.348 344.689 379.281 344.224 361.326 344.06C344.833 343.875 328.323 344.506 311.88 345.951C280.109 348.782 247.884 354.32 218.488 365.58C188.093 377.213 163.122 396.946 138.151 415.362C123.692 426.033 109.114 436.614 93.7935 446.406C78.6479 456.083 62.5884 464.626 46.3608 472.896C39.0666 476.62 31.7501 480.289 24.4659 484.021C24.0772 484.221 24.4589 484.724 24.8571 484.523L24.8761 484.522Z" fill="white"/>
  <path d="M20.8494 488.349C36.8932 481.018 52.9673 473.718 68.4047 465.461C84.5893 456.689 99.9536 446.855 114.354 436.053C141.056 416.269 164.959 392.755 194.398 375.792C221.817 360.003 255.263 352.505 287.493 348.55C303.238 346.631 319.092 345.566 334.958 345.36C352.757 345.138 370.424 346.756 388.198 346.931C405.972 347.106 424.076 345.566 440.837 339.768C457.085 334.153 472.333 325.254 486.095 316.052C509.767 300.23 528.835 280.589 547.547 260.734C569.24 237.727 591.875 215.998 618.344 196.8C647.139 175.95 677.607 156.521 711.173 141.725C744.152 127.157 779.096 116.238 812.878 103.182C847.069 89.9646 880.612 75.4205 912.82 58.8945C921.576 54.3994 930.23 49.7593 938.785 44.9744C938.851 44.9248 938.894 44.857 938.906 44.7834C938.918 44.7099 938.898 44.6356 938.851 44.5744C938.803 44.5132 938.73 44.4691 938.646 44.4503C938.562 44.4315 938.472 44.4393 938.394 44.4722C904.681 63.1489 869.528 79.8454 833.185 94.4415C800.448 107.744 766.669 118.878 733.712 131.685C717.125 138.059 701.008 145.307 685.459 153.386C669.597 161.708 654.682 171.267 640.01 181.045C611.801 199.827 585.876 220.366 562.881 243.771C543.559 263.459 525.791 284.317 503.928 302.086C477.498 323.607 444.922 342.834 407.875 345.736C389.955 347.152 372.051 345.725 354.19 345.031C338.021 344.438 321.802 344.798 305.649 346.111C273.994 348.628 241.658 354.221 212.739 366.172C183.077 378.433 159.743 399.451 136.017 418.458C121.827 429.832 107.318 440.95 91.7937 451.004C76.5177 460.898 60.0737 469.383 43.3207 477.304C35.7418 480.883 28.0903 484.362 20.4487 487.848C20.0496 488.032 20.4408 488.535 20.8399 488.35L20.8494 488.349Z" fill="white"/>
  <path d="M16.7355 492.215C32.8362 485.704 48.8398 478.997 64.1205 471.162C80.7343 462.558 96.3421 452.606 110.719 441.45C137.262 421.061 159.576 396.411 188.042 377.809C214.119 360.725 247.585 352.75 279.45 348.751C295.318 346.767 311.312 345.761 327.307 345.74C345.412 345.694 363.173 347.791 381.151 348.851C398.831 349.887 416.831 349.516 433.905 344.669C451.316 339.721 467.27 330.175 481.466 320.392C505.624 303.742 524.081 282.787 542.327 261.627C563.278 237.315 585.534 214.639 612.757 195.123C642.955 173.505 675.515 154.149 711.568 140.502C745.645 127.622 781.503 118.652 816.066 106.593C851.296 94.4608 885.444 80.1046 918.221 63.6469C927.257 59.0709 936.159 54.3089 944.927 49.3609C944.993 49.3113 945.036 49.2435 945.048 49.1699C945.06 49.0964 945.04 49.0221 944.993 48.9609C944.945 48.8996 944.872 48.8556 944.788 48.8368C944.704 48.818 944.614 48.8258 944.535 48.8587C910.477 67.8933 874.604 84.4344 837.315 98.2985C803.567 110.949 768.685 120.637 734.331 131.861C716.783 137.488 699.704 144.156 683.223 151.814C666.442 159.745 650.704 169.238 635.375 179.047C606.483 197.537 580.466 218.291 558.253 242.547C539.087 263.446 522.204 285.924 500.3 304.954C488.075 315.562 474.463 324.95 459.738 332.928C441.978 342.555 423.443 347.995 402.448 348.652C383.49 349.256 364.778 346.705 345.96 345.614C330.509 344.801 314.986 344.986 299.524 346.168C268.585 348.394 236.883 353.918 208.87 366.027C179.053 378.91 156.972 401.487 133.933 421.496C120.231 433.398 106.011 444.911 90.5344 455.124C75.3608 465.142 58.7706 473.57 41.7275 481.088C33.4128 484.799 24.9864 488.225 16.512 491.647C16.102 491.807 16.3259 492.384 16.7355 492.215Z" fill="white"/>
  <path d="M12.7052 496.042C29.5798 490.059 46.246 483.605 62.0383 475.715C78.7533 467.292 94.3067 457.284 108.392 445.888C134.807 424.764 155.64 398.747 183.365 378.847C208.982 360.409 243.46 352.149 275.947 348.34C291.974 346.468 308.126 345.68 324.251 345.982C342.244 346.314 359.789 348.956 377.595 350.68C395.172 352.384 413.206 352.77 430.437 348.342C448.42 343.717 464.544 333.83 478.779 323.567C502.749 306.291 520.175 284.475 537.438 262.468C546.845 250.466 556.459 238.574 567.23 227.406C579.644 214.636 593.468 202.895 608.507 192.35C639.171 170.721 672.779 152.023 709.992 139.963C745.782 128.357 783.249 121.362 819.252 110.131C855.682 98.8625 890.875 84.7911 924.385 68.0949C933.424 63.5618 942.314 58.814 951.055 53.8514C951.121 53.8018 951.164 53.7339 951.177 53.6604C951.189 53.5869 951.169 53.5126 951.121 53.4514C951.074 53.3901 951.001 53.346 950.917 53.3272C950.833 53.3084 950.743 53.3162 950.664 53.3492C916.244 72.7113 879.648 89.0753 841.445 102.186C806.131 114.435 769.629 122.634 733.41 132.432C715.08 137.244 697.21 143.294 679.973 150.525C662.834 157.871 646.746 167.069 631.205 176.664C601.236 195.16 574.88 216.483 553.141 242.003C534.776 263.566 519.288 286.941 498.154 306.766C486.033 318.123 472.253 328.124 457.162 336.517C439.781 346.426 419.314 351.589 398.569 351.299C379.634 351.159 361.114 347.814 342.355 346.251C327.183 345.078 311.9 344.968 296.659 345.923C265.049 347.751 232.357 353.292 204.07 366.272C174.512 379.843 153.936 403.73 131.811 424.55C118.398 437.154 104.237 449.197 88.5128 459.739C72.5687 470.439 54.8746 479.06 36.5851 486.449C28.6509 489.653 20.5888 492.622 12.4926 495.497C12.0631 495.651 12.2866 496.219 12.7066 496.066L12.7052 496.042Z" fill="white"/>
  <path d="M8.68633 499.872C26.0451 494.516 43.1213 488.393 59.2349 480.622C76.4773 472.219 92.3676 461.927 106.487 450.017C132.215 428.553 151.478 402.239 177.419 381.005C201.678 361.16 236.349 352.275 268.704 348.336C285.065 346.359 301.572 345.601 318.034 346.072C335.912 346.572 353.164 349.41 370.71 351.907C388.611 354.448 407.087 356.044 425.056 352.348C443.987 348.46 460.467 338.455 475.008 327.715C499.303 309.814 515.988 287.048 532.39 263.992C541.361 251.362 550.548 238.856 561.145 227.149C572.924 214.193 586.331 202.353 601.121 191.845C632.109 169.714 667.103 150.936 705.482 140.084C743.167 129.434 782.609 124.618 820.404 114.22C858.354 103.862 894.942 90.0557 929.523 73.0432C938.936 68.3808 948.165 63.4653 957.212 58.2966C957.286 58.2509 957.337 58.1831 957.354 58.1074C957.371 58.0317 957.353 57.9539 957.304 57.8901C957.255 57.8264 957.178 57.7816 957.09 57.7652C957.002 57.7488 956.909 57.7619 956.831 57.8019C921.705 77.6895 884.003 94.0184 844.513 106.447C826.405 112.217 807.968 117.175 789.279 121.301C769.817 125.559 750.135 128.975 730.691 133.208C710.766 137.465 691.321 143.294 672.612 150.617C655.841 157.239 639.995 166.343 624.941 175.449C594.703 193.759 568.793 215.363 548.105 241.589C530.056 264.499 515.615 289.492 494.28 310.46C482.114 322.386 468.032 332.807 452.461 341.405C433.743 351.773 412.71 355.057 390.884 353.542C372.331 352.249 354.361 348.186 335.859 346.478C320.624 345.144 305.256 344.933 289.927 345.849C258.209 347.627 225.143 353.448 197.356 367.498C168.652 381.996 149.801 407.188 128.742 428.479C115.922 441.453 102.097 453.71 86.4905 464.31C70.1964 475.386 51.8488 484.077 32.7672 491.116C24.762 494.082 16.6261 496.765 8.46194 499.288C8.3791 499.319 8.31259 499.376 8.27549 499.446C8.2384 499.517 8.23338 499.596 8.26144 499.668C8.2895 499.74 8.34861 499.8 8.42715 499.837C8.50568 499.873 8.59797 499.883 8.68587 499.864L8.68633 499.872Z" fill="white"/>
  <path d="M4.65469 503.7C42.4543 493.713 76.833 478.297 104.787 453.959C130.192 431.844 147.937 404.503 172.949 382.193C196.509 361.129 231.756 351.831 264.536 347.981C281.081 346.045 297.776 345.439 314.396 346.171C332.499 346.916 349.739 350.222 367.332 353.363C385.117 356.533 403.554 358.93 421.736 355.779C441.06 352.433 457.468 342.505 472.042 331.513C497.126 312.597 513.111 288.257 528.945 263.627C537.26 250.704 545.877 237.884 556.126 225.931C567.712 212.419 581.225 200.163 596.348 189.45C627.88 167.004 664.023 148.482 703.672 139.156C743.16 129.864 784.161 127.282 823.632 117.684C862.448 108.327 899.835 94.9362 934.933 77.818C944.627 73.0748 954.107 68.0398 963.373 62.7131C963.439 62.6635 963.482 62.5956 963.495 62.5221C963.507 62.4486 963.487 62.3743 963.439 62.3131C963.392 62.2518 963.319 62.2077 963.235 62.1889C963.151 62.1702 963.061 62.1779 962.982 62.2109C927.028 82.7259 888.064 99.0785 847.146 110.825C828.821 116.148 810.15 120.517 791.238 123.909C770.485 127.589 749.544 130.003 728.791 133.529C708.417 136.993 688.228 141.697 669.094 148.827C651.892 155.24 635.466 164.2 620.069 173.318C589.486 191.421 563.73 213.234 544.02 240.212C526.354 264.318 513.2 290.795 492.002 312.982C480.013 325.537 465.793 336.442 449.872 345.294C431.117 355.672 409.634 358.118 388.015 355.873C369.227 353.835 351.164 348.993 332.499 346.916C317.018 345.237 301.359 344.791 285.725 345.585C254.011 347.096 220.727 352.945 193.264 367.485C164.276 382.832 146.74 409.684 126.209 432.018C113.827 445.483 100.186 458.117 84.5042 468.899C68.2727 480.068 49.7933 488.622 30.5173 495.268C21.9661 498.185 13.2538 500.788 4.45876 503.113C4.01746 503.228 4.24096 503.796 4.68225 503.682L4.65469 503.7Z" fill="white"/>
  <path d="M0.621678 507.526C39.4055 498.904 74.6708 483.493 102.506 458.411C128.076 435.374 144.384 406.582 168.937 382.925C191.739 360.953 227.28 351.291 260.218 347.553C277.239 345.611 294.416 345.159 311.478 346.202C329.133 347.28 345.891 350.816 362.933 354.481C381.269 358.443 400.45 361.855 419.562 358.957C438.976 356.017 455.236 346.171 469.642 335.067C495.373 315.145 510.485 289.394 525.599 263.352C533.173 250.294 541.116 237.36 550.766 225.272C562.355 210.789 576.303 197.751 592.184 186.558C624.089 163.97 661.206 145.811 701.726 138.042C722.773 134.006 744.234 132.353 765.601 130.221C786.194 128.222 806.629 125.474 826.805 121.206C866.754 112.761 905.225 99.6483 941.103 82.2491C950.793 77.5385 960.255 72.5153 969.489 67.1797C969.876 66.9554 969.447 66.4554 969.107 66.6769C932.763 87.558 893.049 103.776 851.279 114.793C831.699 120.01 811.719 123.999 791.502 126.728C770.262 129.572 748.859 130.923 727.557 133.512C706.567 136.066 685.035 139.79 665.438 146.98C648.061 153.338 631.513 161.675 615.883 170.71C600.049 179.862 584.891 190.145 571.7 201.986C559.017 213.369 548.374 226.266 539.257 239.825C522.495 264.727 510.829 292.039 490.183 315.042C478.312 328.276 463.633 340.259 446.995 349.175C427.585 359.607 405.365 360.989 383.446 357.695C364.711 354.903 346.753 349.41 327.891 347.061C312.425 345.181 296.751 344.586 281.091 345.287C249.205 346.623 215.49 352.594 188.299 367.885C159.688 383.993 143.651 412.026 124.025 435.035C111.95 449.185 98.3596 462.357 82.4116 473.485C65.8116 485.039 46.6678 493.639 26.6481 499.949C18.0231 502.645 9.25195 504.974 0.367832 506.927C-0.0838924 507.026 0.139599 507.594 0.591322 507.495L0.621678 507.526Z" fill="white"/>
  <path d="M-3.40086 511.354C36.5933 504.051 72.9919 488.461 100.806 462.363C126.116 438.606 140.959 408.882 164.533 384.111C186.427 361.109 222.208 350.989 255.382 347.197C272.826 345.206 290.439 344.859 307.899 346.161C325.366 347.46 341.812 351.192 358.52 355.344C376.759 359.941 395.796 364.314 415.149 362.307C435.042 360.236 451.49 350.83 466.103 339.513C492.354 319.181 506.902 292.745 520.918 265.692C528.112 251.833 535.597 238.053 545.106 225.174C556.18 210.197 569.928 196.745 585.847 185.312C601.687 174.001 618.857 164.115 637.071 155.817C656.621 146.639 677.764 140.237 699.645 136.872C721.317 133.592 743.254 132.929 765.156 131.807C786.24 130.725 807.184 128.851 827.927 125.156C869.62 117.701 909.804 104.773 947.017 86.8426C956.795 82.1268 966.335 77.0669 975.635 71.6629C975.7 71.6133 975.744 71.5455 975.756 71.4719C975.768 71.3984 975.748 71.3241 975.7 71.2629C975.653 71.2016 975.58 71.1576 975.496 71.1388C975.412 71.12 975.322 71.1278 975.243 71.1607C937.939 92.7124 896.808 108.951 853.514 119.219C833.199 124.091 812.467 127.505 791.54 129.425C769.507 131.402 747.366 131.69 725.318 133.409C703.839 135.088 681.335 137.988 661.196 145.193C643.115 151.757 625.816 159.82 609.554 169.262C593.323 178.638 577.778 189.315 564.696 201.877C552.451 213.598 542.388 226.792 533.947 240.668C518.063 266.746 507.64 295.286 486.806 319.163C474.881 332.772 459.514 345.885 441.967 354.232C422.304 363.581 400.391 363.524 379.21 359.477C360.901 355.982 343.405 350.074 324.905 347.398C309.322 345.207 293.482 344.395 277.639 344.973C245.128 346.046 210.394 352.189 183.189 368.563C155.276 385.373 140.854 414.144 122.38 437.627C110.396 452.854 96.5262 466.963 79.7889 478.613C63.0515 490.263 43.3983 498.788 22.9337 504.655C14.2268 507.128 5.36918 509.177 -3.59537 510.792C-4.04802 510.875 -3.82456 511.443 -3.37191 511.36L-3.40086 511.354Z" fill="white"/>
  <path d="M-7.51415 515.2C33.0763 509.308 70.3527 493.902 98.0168 467.352C123.569 442.846 137.053 412.014 159.691 385.892C180.925 361.37 217.18 350.552 251.239 346.741C268.886 344.773 286.704 344.555 304.331 346.092C322.05 347.627 338.592 351.708 355.364 356.463C373.501 361.607 392.432 366.793 411.949 365.463C432.539 364.062 449.441 354.606 464.256 342.841C491.056 321.613 504.664 293.923 517.753 265.665C524.354 251.428 531.292 237.268 540.444 223.981C551.024 208.634 564.56 194.869 580.479 183.272C596.59 171.657 614.193 161.633 632.938 153.399C641.996 149.324 651.337 145.734 660.906 142.649C672.5 138.959 685.003 136.968 697.186 135.561C719.774 132.954 742.517 133.35 765.192 133.242C787.531 133.096 809.728 131.965 831.803 128.581C873.758 122.136 914.277 109.789 951.674 92.055C962.02 87.1503 972.078 81.845 981.85 76.1392C982.228 75.9154 981.808 75.4149 981.459 75.637C943.493 97.6845 901.296 113.841 856.878 123.336C835.817 127.893 814.333 130.758 792.712 131.892C770.134 133.02 747.56 132.227 724.978 132.968C703.101 133.684 680.011 135.69 659.296 142.484C640.883 148.627 623.274 156.438 606.78 165.78C590.034 175.146 574.051 185.994 560.815 198.871C548.364 210.976 538.369 224.69 530.256 239.128C515.351 265.658 506.523 294.599 487.03 319.238C475.406 333.944 459.807 347.967 441.685 356.936C421.784 366.783 399.384 366.367 377.995 361.702C359.474 357.67 341.888 351.017 323.082 347.842C307.448 345.268 291.495 344.168 275.51 344.562C242.718 345.24 207.442 351.237 180.123 367.94C151.589 385.384 138.468 415.565 120.608 440.086C109.52 455.334 96.4823 469.492 80.4571 481.262C63.4814 493.734 43.4135 502.67 22.174 508.485C12.4389 511.123 2.50537 513.166 -7.54906 514.597C-8.00265 514.663 -7.96774 515.267 -7.51415 515.2Z" fill="white"/>
  <path d="M-11.553 519.025C30.4088 514.434 69.1302 498.637 96.8514 470.768C122.07 445.442 133.968 413.716 155.834 386.614C176.516 360.944 213.741 349.756 248.401 346.128C266.326 344.251 284.411 344.24 302.254 346.098C320.355 347.981 337.036 352.644 354.012 357.984C371.584 363.549 390.016 369.168 409.282 368.449C430.335 367.659 447.544 358.218 462.548 346.103C489.79 324.107 502.494 295.298 514.514 266.012C520.797 250.735 527.474 235.517 536.803 221.331C547.161 205.624 560.764 191.59 576.949 179.914C593.819 167.845 612.391 157.616 632.215 149.474C641.08 145.749 650.215 142.523 659.56 139.818C671.289 136.475 683.885 134.939 696.124 134.005C719.351 132.226 742.558 133.742 765.725 134.557C788.645 135.379 811.375 135.074 834.148 132.214C877.426 126.742 919.314 114.633 957.753 96.4814C968.098 91.5767 978.138 86.2779 987.873 80.5849C987.951 80.5397 988.005 80.4703 988.024 80.392C988.043 80.3137 988.024 80.2329 987.972 80.1674C987.921 80.1019 987.84 80.057 987.748 80.0426C987.656 80.0282 987.56 80.0456 987.482 80.0908C948.661 102.766 905.159 118.912 859.395 127.629C838.223 131.72 816.656 133.977 795.028 134.364C771.566 134.712 748.241 132.799 724.801 132.548C702.145 132.317 678.272 133.463 656.618 140.029C638.136 145.735 620.45 153.217 603.911 162.327C586.764 171.659 570.33 182.63 556.931 195.815C544.182 208.373 534.243 222.715 526.444 237.821C512.065 265.685 504.624 296.039 485.08 321.941C473.576 337.237 457.379 352.304 438.383 360.976C418.37 370.208 396.239 368.84 375.398 363.594C357.159 358.997 339.91 351.921 321.297 348.29C305.303 345.277 288.908 343.886 272.455 344.147C239.436 344.523 203.676 350.548 176.411 367.701C147.678 385.818 135.915 417.06 118.86 442.495C108.331 458.179 95.7283 472.771 79.8073 484.859C62.1974 498.231 40.9809 507.573 18.4509 513.155C8.62468 515.576 -1.39752 517.336 -11.5214 518.418C-11.9773 518.444 -11.941 519.072 -11.4865 519.021L-11.553 519.025Z" fill="white"/>
  <path d="M-15.5817 522.886C27.7215 519.573 67.9468 503.415 95.6468 474.191C120.436 448.034 130.844 415.433 151.84 387.445C171.872 360.747 209.664 349.146 244.911 345.614C263.246 343.778 281.738 343.954 299.929 346.137C318.228 348.309 334.957 353.485 351.936 359.358C369.314 365.37 387.501 371.536 406.697 371.403C428.12 371.245 445.686 361.88 460.808 349.5C488.337 326.874 500.199 297.33 511.13 267.179C516.885 251.351 522.918 235.54 531.946 220.759C541.757 204.57 555.136 190.087 571.344 178.109C588.622 165.542 607.82 155.03 628.394 146.872C637.65 143.111 647.192 139.902 656.952 137.266C669.219 133.997 682.425 132.806 695.166 132.303C719.318 131.358 743.248 134.003 767.178 135.824C789.846 137.557 812.479 138.048 835.219 135.925C879.883 131.608 923.273 119.877 962.906 101.402C973.617 96.4245 984.019 90.9713 994.067 85.0653C994.445 84.8416 994.025 84.3411 993.676 84.5631C953.654 108.054 908.409 124.225 860.886 132.026C838.719 135.72 816.18 137.295 793.695 136.72C770.299 136.063 747.164 133.154 723.852 131.984C700.723 130.835 676.347 131.187 654 137.461C634.701 143.029 616.25 150.606 599.078 160.017C581.448 169.418 564.82 180.658 551.563 194.311C539.016 207.237 529.498 221.942 522.265 237.435C508.697 266.48 502.672 298.076 483.066 325.039C471.855 340.464 455.791 355.838 436.739 364.376C416.303 373.552 393.754 371.392 372.845 365.448C354.861 360.336 337.918 352.765 319.464 348.754C303.202 345.318 286.456 343.636 269.619 343.749C235.953 343.815 199.118 349.886 171.76 368.037C142.996 387.117 132.714 419.742 116.281 446.046C106.215 462.163 93.7776 477.133 77.765 489.452C60.0196 503.115 38.3823 512.433 15.422 517.661C5.25492 519.955 -5.11203 521.495 -15.5606 522.263C-15.6444 522.279 -15.7191 522.321 -15.7713 522.379C-15.8235 522.438 -15.8499 522.51 -15.8457 522.582C-15.8415 522.655 -15.807 522.723 -15.7484 522.775C-15.6898 522.827 -15.6108 522.859 -15.5256 522.866L-15.5817 522.886Z" fill="white"/>
  <path d="M-19.6071 526.685C24.3968 524.777 65.7742 508.601 93.4124 478.637C118.522 451.428 127.415 417.511 147.897 388.219C167.392 360.325 206.152 348.314 242.143 344.964C260.886 343.216 279.774 343.628 298.289 346.189C316.716 348.757 333.368 354.415 350.29 360.783C368.002 367.47 386.747 374.387 406.667 374.252C428.062 374.104 445.524 364.431 460.33 351.842C488.398 327.99 498.849 296.808 508.85 265.394C514.106 248.845 519.869 232.331 529.042 216.936C538.954 200.261 552.789 185.44 569.676 173.406C587.503 160.813 607.352 150.461 628.595 142.675C637.817 139.182 647.329 136.292 657.047 134.029C669.511 131.208 682.883 130.58 695.683 130.591C720.462 130.619 744.842 134.441 769.276 137.234C791.964 139.821 814.679 141.067 837.632 139.497C883.073 136.4 927.978 124.703 968.296 106.19C979.287 101.132 989.942 95.5529 1000.21 89.4795C1000.27 89.4299 1000.32 89.362 1000.33 89.2885C1000.34 89.215 1000.32 89.1407 1000.27 89.0794C1000.23 89.0182 1000.15 88.9741 1000.07 88.9553C999.985 88.9365 999.896 88.9443 999.817 88.9772C958.904 113.13 912.284 129.269 863.411 136.197C840.625 139.467 817.51 140.405 794.566 138.993C770.606 137.48 747.033 133.45 723.153 131.343C700.519 129.35 676.302 128.676 654.098 134.127C634.281 138.987 615.261 146.603 597.625 155.738C579.767 164.983 562.706 176.151 549.19 189.771C535.909 203.192 526.172 218.716 519.055 235.067C506.048 265.064 501.593 297.619 482.81 325.802C471.776 342.298 455.184 358.938 435.041 367.718C414.07 376.86 391.262 373.851 370.341 367.213C352.623 361.585 335.96 353.602 317.684 349.193C301.35 345.371 284.453 343.4 267.427 343.332C233.281 342.99 195.621 348.979 168.064 367.65C138.94 387.421 129.991 421.189 114.345 448.4C104.604 465.354 92.2056 481.17 75.6792 493.995C57.7482 507.911 35.7681 517.232 12.3499 522.123C1.83684 524.287 -8.87648 525.599 -19.6443 526.041C-19.7281 526.058 -19.8028 526.099 -19.855 526.157C-19.9073 526.216 -19.9336 526.288 -19.9294 526.36C-19.9252 526.433 -19.8908 526.501 -19.8321 526.553C-19.7735 526.605 -19.6946 526.638 -19.6094 526.645L-19.6071 526.685Z" fill="white"/>
  <path d="M-23.6369 530.511C21.6457 529.951 64.5726 513.378 92.1682 482.02C117.208 453.596 124.278 418.314 144.65 387.947C163.792 359.387 203.626 347.33 239.931 344.301C258.53 342.737 277.245 343.349 295.549 346.122C314.645 349.055 331.638 355.338 348.97 362.362C366.301 369.385 384.505 376.657 404.145 377.127C426.16 377.646 444.178 367.86 459.222 354.781C487.658 330.052 497.05 297.833 506.002 265.446C510.731 248.338 515.944 231.218 524.893 215.23C534.492 198.039 548.377 182.769 565.571 170.495C583.532 157.822 603.61 147.504 625.117 139.897C634.62 136.434 644.418 133.613 654.42 131.46C666.904 128.832 680.161 128.51 692.904 128.863C717.788 129.547 742.052 134.175 766.382 137.959C790.251 141.681 814.195 144.075 838.594 143.124C885.65 141.258 932.476 129.821 974.212 110.774C985.297 105.71 996.031 100.099 1006.36 93.9687C1006.73 93.745 1006.31 93.2445 1005.97 93.4665C963.803 118.462 915.357 134.589 864.725 140.482C840.979 143.291 816.962 143.47 793.281 141.013C769.075 138.376 745.402 133.44 721.283 130.491C698.749 127.757 674.557 126.355 652.145 131.341C631.511 135.926 611.676 143.622 593.358 152.99C575.04 162.358 557.815 173.649 544.39 187.707C531.667 201.031 522.45 216.332 515.92 232.447C503.068 264.139 500.35 298.539 481.236 328.421C470.285 345.534 453.087 363.226 431.96 371.643C411.094 379.963 388.736 376.153 368.539 369.183C350.782 363.056 334.192 354.513 315.821 349.624C299.581 345.465 282.705 343.217 265.66 342.942C230.866 342.129 192.105 348.004 164.24 367.452C134.852 387.933 127.242 422.761 112.416 450.821C103.131 468.403 90.9863 484.818 74.296 498.104C55.9206 512.74 32.9534 522.296 8.54226 526.825C-2.07053 528.765 -12.8661 529.798 -23.6813 529.908C-24.1372 529.935 -24.1033 530.522 -23.6464 530.512L-23.6369 530.511Z" fill="white"/>
  <path d="M-27.6665 534.346C18.8189 535.137 63.4102 518.178 90.8845 485.381C115.462 456.047 121.058 420.003 140.653 388.728C159.281 359.011 200.062 346.535 237.16 343.687C256.172 342.215 275.282 343.065 293.904 346.21C312.74 349.424 329.389 356.01 346.358 363.361C363.838 370.973 382.317 379.045 402.448 379.947C424.787 380.948 443.143 371.077 458.244 357.664C487.248 331.877 495.459 298.362 503.383 264.832C507.54 247.239 512.257 229.599 520.995 213.114C530.539 195.061 544.925 179.089 562.985 166.495C581.439 153.751 602.098 143.525 624.197 136.196C634.411 132.654 644.983 129.945 655.768 128.104C668.601 126.054 682.177 126.141 695.083 127.009C720.072 128.68 744.209 134.414 768.48 139.154C792.337 143.822 816.336 147.004 840.987 146.619C888.651 145.873 936.346 134.951 978.77 115.944C990.429 110.705 1001.69 104.84 1012.49 98.3863C1012.88 98.1621 1012.45 97.6621 1012.11 97.8836C969.254 123.396 919.697 139.428 868.043 144.489C843.696 146.912 819.135 146.45 795.069 143.115C770.529 139.641 746.713 133.55 722.298 129.609C699.413 125.919 674.674 123.789 651.546 128.26C630.416 132.34 610.028 139.866 591.277 149.162C572.526 158.458 554.275 170.124 540.508 184.703C527.479 198.513 518.301 214.481 512.181 231.25C500.093 264.134 498.942 299.759 479.925 330.815C469.242 348.284 451.964 366.562 430.439 374.856C409.279 383.032 386.816 378.574 366.79 371.093C348.995 364.46 332.525 355.368 313.987 350.054C297.498 345.454 280.269 342.9 262.83 342.468C227.761 341.34 188.483 347.189 160.555 367.036C146.55 376.986 138.319 389.888 131.579 404.021C123.767 420.379 118.099 437.388 110.142 453.706C101.385 471.677 89.5792 488.517 72.9165 502.117C54.1049 517.448 30.2175 527.243 4.84046 531.384C-5.89901 533.111 -16.801 533.879 -27.6861 533.677C-28.1444 533.663 -28.1095 534.267 -27.6512 534.281L-27.6665 534.346Z" fill="white"/>
  <path d="M-31.6969 538.17C15.4085 540.29 61.2344 523.42 88.6817 489.826C113.833 459.045 117.45 421.243 137.237 388.511C155.501 358.267 196.989 345.661 234.377 343.054C253.802 341.673 273.306 342.763 292.24 346.287C311.355 349.881 328.009 357.056 344.99 364.932C362.617 373.109 381.382 381.85 401.995 382.845C423.832 383.899 441.831 374.275 456.556 361.118C486.461 334.439 493.689 299.584 500.547 264.912C504.11 246.943 508.196 228.943 516.546 212.005C525.513 193.605 539.62 177.264 557.631 164.413C576.293 151.101 598.039 140.703 620.693 133.312C631.2 129.803 642.065 127.162 653.135 125.428C666.268 123.474 680.123 124.11 693.236 125.41C718.876 127.964 743.483 134.558 768.262 140.182C792.403 145.648 816.75 149.723 841.898 150.036C891.089 150.646 940.821 140.01 984.672 120.461C996.431 115.212 1007.78 109.306 1018.63 102.784C1019.01 102.561 1018.59 102.06 1018.24 102.29C974.336 128.554 923.186 144.537 870.071 148.592C844.806 150.511 819.417 149.306 794.701 145.015C769.67 140.633 745.441 133.654 720.454 128.89C697.452 124.488 672.371 121.393 648.864 125.571C627.168 129.425 606.207 136.92 586.989 146.388C567.946 155.742 549.753 167.436 536.134 182.249C523.151 196.363 514.306 212.651 508.604 229.743C497.235 263.844 497.647 300.623 478.858 332.981C468.461 350.943 450.991 369.862 428.943 378.17C407.49 386.233 384.967 381.069 365.066 373.112C346.939 365.844 330.169 356.011 311.158 350.264C294.715 345.436 277.482 342.687 260.006 342.104C224.662 340.677 184.846 346.452 156.858 366.731C142.598 377.059 134.518 390.437 128.095 405.092C120.635 422.108 115.489 439.733 107.866 456.718C99.5063 475.304 87.86 492.756 70.8682 506.763C51.7113 522.55 27.0727 532.372 1.00234 536.06C-9.83463 537.572 -20.8112 538.077 -31.7318 537.566C-32.1905 537.544 -32.1461 538.147 -31.6969 538.17Z" fill="white"/>
  <path d="M-35.8211 541.994C11.3298 545.395 57.9637 529.149 85.5835 495.407C111.584 463.657 113.887 424.549 132.68 390.285C150.021 358.6 191.932 345.211 230.241 342.559C250.11 341.158 270.056 342.38 289.365 346.18C308.85 350.059 325.604 357.656 342.721 366.081C360.301 374.753 379.025 384.102 399.834 385.667C421.847 387.309 440.146 377.934 454.987 364.633C469.827 351.332 480.146 335.144 486.373 317.747C492.6 300.35 495.052 282.283 497.981 264.383C501.03 245.757 504.654 227.009 512.909 209.422C521.803 190.365 536.321 173.491 555.048 160.444C574.201 147.072 596.562 136.743 619.788 129.691C630.624 126.286 641.835 123.865 653.23 122.468C666.883 120.927 681.153 122.137 694.611 123.982C720.299 127.519 744.805 134.999 769.517 141.45C793.9 147.791 818.598 152.668 844.275 153.557C894.024 155.249 944.655 145.174 989.231 125.64C1001.58 120.242 1013.47 114.109 1024.81 107.288C1025.19 107.064 1024.77 106.564 1024.42 106.786C979.553 133.697 926.947 149.574 872.544 152.624C847.245 154.039 821.91 152.258 797.371 147.34C771.946 142.246 747.519 134.317 722.321 128.54C699.045 123.201 673.322 118.884 649.033 122.396C627.118 125.593 605.842 132.751 586.309 141.874C566.276 151.252 547.004 163.235 532.783 178.688C519.521 193.085 510.76 209.837 505.312 227.358C494.403 262.652 496.597 300.579 478.26 334.341C468.263 352.787 450.988 372.285 428.711 380.913C406.91 389.376 383.931 383.737 363.884 375.248C345.833 367.637 329.294 357.346 310.423 351.058C293.96 345.55 276.232 342.708 258.518 341.755C222.505 339.801 181.539 345.449 153.148 366.364C138.98 376.792 131.067 390.249 125.03 404.987C118.002 422.212 113.439 440.038 106.537 457.296C98.7017 476.877 87.4625 495.436 70.0614 510.274C50.7621 526.731 25.5831 536.932 -1.20358 540.427C-12.6333 541.896 -24.2023 542.21 -35.667 541.363C-36.1167 541.333 -36.2731 541.923 -35.823 541.962L-35.8211 541.994Z" fill="white"/>
  <path d="M-39.8526 545.82C9.02671 550.599 57.826 533.565 85.1758 497.627C110.178 464.764 110.678 424.977 129.206 390.066C146.349 357.755 189.224 344.245 228.009 341.905C247.959 340.675 267.952 342.123 287.248 346.197C306.681 350.346 323.272 358.227 340.153 367.021C357.918 376.263 376.842 386.448 398.144 388.47C420.711 390.612 439.526 380.941 454.537 367.122C485.608 338.502 490.541 301.204 495.3 264.53C497.792 245.347 500.837 225.986 508.863 207.726C517.369 188.168 531.903 170.82 550.931 157.518C570 144.174 592.31 133.969 615.506 127.048C626.874 123.542 638.637 121.099 650.584 119.763C664.273 118.349 678.471 119.805 691.888 121.92C718.818 126.167 744.318 134.874 770.076 142.427C794.951 149.708 820.216 155.481 846.69 156.962C897.468 159.797 949.502 150.086 995.137 130.256C1007.57 124.833 1019.53 118.649 1030.92 111.755C1031.3 111.523 1030.88 111.023 1030.53 111.253C984.822 138.748 930.919 154.508 875.402 156.609C848.597 157.603 821.857 154.974 796.187 148.821C770.83 142.763 746.532 134.092 721.366 127.562C697.178 121.282 670.516 116.228 644.949 119.871C622.99 122.982 601.622 130.023 582.049 139.117C561.863 148.488 542.473 160.574 528.408 176.245C514.888 191.286 506.343 208.801 501.396 227.076C491.586 263.429 495.169 302.309 476.958 337.08C467.175 355.765 449.838 375.678 427.268 384.186C405.173 392.512 382.077 386.162 362.195 377.227C344.075 369.087 327.582 358.277 308.608 351.526C291.853 345.575 273.669 342.429 255.498 341.324C219.549 339.14 178.638 344.607 150.156 365.423C118.677 388.455 115.92 427.46 104.582 458.967C97.3424 479.12 86.6213 498.399 69.1972 513.828C49.9148 530.906 24.46 541.446 -2.83944 544.809C-15.0792 546.321 -27.4684 546.476 -39.6938 545.27C-40.1444 545.223 -40.3009 545.814 -39.8503 545.86L-39.8526 545.82Z" fill="white"/>
  <path d="M-43.8783 549.646C-19.7489 552.602 5.48345 550.408 28.2145 542.205C51.1223 533.928 70.2406 519.452 83.4042 501.54C95.7017 484.802 102.218 465.814 107.402 446.862C112.586 427.911 116.347 407.919 125.708 389.841C142.68 357.046 186.083 343.434 225.223 341.291C245.388 340.169 265.571 341.818 284.991 346.174C304.941 350.672 321.721 359.205 338.855 368.589C356.433 378.214 375.18 388.797 396.498 391.254C418.996 393.844 437.952 384.472 452.999 370.626C484.922 341.254 488.976 302.772 492.643 265.168C494.582 245.314 497.003 225.215 504.775 206.194C512.997 185.973 527.642 167.981 547.075 154.228C567.24 140.015 590.432 129.255 615.326 122.561C640.953 115.653 666.375 115.41 692.39 120.332C719.718 125.525 745.34 135.178 771.348 143.597C796.191 151.647 821.529 158.191 848.24 160.303C900.417 164.431 954.332 155.111 1001.35 134.676C1013.77 129.275 1025.71 123.097 1037.07 116.195C1037.45 115.972 1037.03 115.471 1036.68 115.693C990.008 143.859 934.633 159.515 877.866 160.592C851.025 161.085 824.349 157.909 798.862 151.185C772.837 144.302 748.119 134.613 722.371 127.084C697.797 119.89 671.41 114.311 645.036 116.547C622.342 118.465 600.032 125.545 579.915 134.783C559.249 144.255 539.43 156.665 525.06 172.675C510.928 188.341 502.388 206.768 497.807 225.927C488.841 263.353 493.953 303.138 476.113 339.051C466.582 358.31 449.045 378.864 425.819 387.418C403.471 395.655 380.138 388.502 360.48 379.159C342.331 370.52 325.876 359.199 306.78 351.995C290.015 345.698 271.68 342.245 253.336 340.948C216.886 338.358 175.093 343.722 146.366 365.085C131.656 376.029 123.781 390.146 118.308 405.739C111.819 424.217 108.311 443.297 102.209 461.866C95.4661 482.377 85.1692 502.068 67.7764 517.874C48.1009 535.734 21.6381 546.478 -6.63717 549.445C-18.9803 550.711 -31.4356 550.579 -43.6743 549.053C-44.1254 548.998 -44.2819 549.588 -43.8308 549.643L-43.8783 549.646Z" fill="white"/>
  <path d="M-47.9109 553.482C-23.239 557.085 2.80266 555.207 26.1907 546.83C49.3825 538.52 68.6921 523.725 81.6158 505.457C94.0586 487.935 100.132 468.052 104.897 448.285C109.5 429.004 112.742 408.937 121.667 390.569C138.137 356.665 182.45 342.644 222.439 340.686C243.237 339.65 264.024 341.595 283.926 346.439C303.9 351.364 320.519 360.407 337.533 370.177C354.941 380.176 373.539 391.13 394.863 394.023C417.915 397.146 437.368 387.462 452.559 373.14C484.977 342.609 487.557 302.686 490.194 264.092C491.581 244.085 493.47 223.846 500.787 204.537C508.766 183.366 523.879 164.538 544.238 150.405C564.479 136.422 587.701 125.916 612.572 119.493C638.861 112.667 664.781 112.807 691.133 118.436C718.875 124.365 744.699 134.878 770.922 144.204C795.811 153.051 821.222 160.536 848.218 163.447C901.46 169.193 957.166 160.512 1005.57 139.973C1018.69 134.392 1031.27 127.931 1043.2 120.655C1043.58 120.423 1043.16 119.922 1042.81 120.152C994.789 149.213 937.417 164.759 878.968 164.551C850.742 164.362 822.847 160.134 796.458 152.045C770.531 144.203 745.845 133.762 720.109 125.602C695.985 117.97 669.95 111.878 643.776 113.618C620.565 115.163 597.714 122.128 577.139 131.344C555.966 140.781 535.725 153.312 521.191 169.615C506.821 185.787 498.447 204.778 494.297 224.461C486.05 263.121 492.839 304.044 475.169 341.263C465.822 360.899 448.169 382.243 424.411 390.65C402.211 398.491 379.337 391.207 360.043 381.721C341.651 372.668 325.189 360.75 305.96 352.884C288.918 345.917 270.019 342.117 251.138 340.585C214.216 337.585 171.587 342.829 142.576 364.709C127.573 376.025 119.812 390.62 114.642 406.696C108.488 425.84 105.511 445.552 99.7613 464.771C93.5346 485.631 83.6536 505.759 66.2723 521.928C46.6124 540.223 19.8351 551.13 -8.82228 553.918C-21.8361 555.15 -34.955 554.805 -47.7829 552.893C-47.8724 552.885 -47.9629 552.905 -48.0367 552.951C-48.1106 552.996 -48.1623 553.062 -48.1819 553.137C-48.2014 553.212 -48.1873 553.29 -48.1424 553.356C-48.0974 553.421 -48.0248 553.47 -47.9389 553.492L-47.9109 553.482Z" fill="white"/>
  <path d="M-51.9388 557.285C-26.7525 561.544 0.138329 560.013 24.1819 551.436C47.8986 542.975 67.4544 527.657 80.2364 508.751C92.2725 490.953 97.8206 470.883 102.063 450.969C106.305 431.054 108.948 410.352 117.671 391.293C133.441 356.671 177.912 342.076 218.349 340.116C239.809 339.041 261.253 341.165 281.705 346.391C302.275 351.733 319.135 361.481 336.471 371.879C353.807 382.277 372.155 393.52 393.49 396.776C416.337 400.299 435.884 390.932 451.07 376.675C484.568 345.209 486.104 303.893 487.706 264.197C488.555 243.292 489.882 222.085 497.224 201.886C504.829 180.531 519.912 161.536 540.448 147.452C561.1 133.282 585.65 122.924 610.98 116.638C623.071 113.638 635.63 111.474 648.189 111.119C662.813 110.701 677.733 113.447 691.646 116.881C746.125 130.153 792.972 159.28 849.865 166.671C904.28 173.746 961.738 165.545 1011.48 144.541C1024.69 138.947 1037.36 132.446 1049.35 125.104C1049.73 124.88 1049.31 124.379 1048.96 124.61C1000.05 154.271 941.315 169.679 881.78 168.467C852.788 167.774 824.254 162.816 797.449 153.813C771.216 145.133 746.366 133.837 720.295 124.833C696.14 116.484 669.094 108.901 642.456 110.845C618.551 112.591 594.939 119.415 573.538 128.703C551.793 138.132 530.817 150.803 516.33 167.757C502.55 183.895 494.724 202.644 490.996 222.052C483.28 262.151 491.884 304.463 474.372 343.256C465.266 363.427 447.281 385.638 422.82 393.916C400.068 401.603 376.869 393.304 357.619 383.259C339.145 373.629 322.631 361.125 303.116 352.928C285.944 345.702 266.816 341.721 247.691 340.099C210.483 336.93 167.333 342.228 138.392 364.653C123.341 376.302 115.847 391.237 111.039 407.632C105.219 427.443 102.764 447.779 97.358 467.664C91.5552 489.097 81.9214 509.873 64.2327 526.495C44.2665 545.26 16.7112 556.228 -12.6318 558.531C-25.762 559.535 -38.9579 558.925 -51.8095 556.72C-51.9014 556.704 -51.9978 556.719 -52.0775 556.763C-52.1571 556.807 -52.2135 556.876 -52.2343 556.954C-52.255 557.033 -52.2384 557.114 -52.1881 557.181C-52.1377 557.248 -52.0579 557.294 -51.9659 557.31L-51.9388 557.285Z" fill="white"/>
  <path d="M-55.9662 561.133C-30.5165 565.991 -3.18263 564.87 21.3609 556.369C45.9044 547.868 66.1239 531.834 78.8381 512.084C90.722 493.633 95.7358 472.891 99.4965 452.399C103.257 431.907 105.32 410.568 114.052 391C129.936 355.548 175.627 340.955 216.853 339.45C238.301 338.623 259.68 341.022 279.998 346.536C300.81 352.268 317.724 362.626 335.107 373.49C352.489 384.353 370.885 396.103 392.502 399.625C415.592 403.4 435.438 393.758 450.625 379.193C484.448 346.749 484.686 304.248 485.262 263.795C485.567 242.542 486.319 220.94 493.264 200.297C500.694 178.171 515.388 158.864 536.61 144.346C557.832 129.828 583.195 119.35 609.307 113.245C621.53 110.39 634.225 108.421 646.883 108.294C662.122 108.139 677.686 111.462 692.083 115.369C746.919 130.372 793.711 161.173 851.346 169.87C907.07 178.314 966.442 170.56 1017.63 149.028C1030.85 143.439 1043.52 136.926 1055.49 129.559C1055.87 129.327 1055.45 128.827 1055.11 129.056C1005.64 159.37 944.532 174.677 884.168 172.356C854.33 171.207 825.715 165.337 798.38 155.558C772.104 146.145 747.29 134.153 721.222 124.365C697.023 115.269 669.611 106.624 642.511 107.844C617.978 108.949 593.588 115.648 571.472 124.937C549.06 134.372 527.23 147.27 512.478 164.74C498.285 181.492 490.738 201.121 487.463 221.27C480.824 262.025 490.575 304.731 473.989 344.366C465.215 365.342 446.93 388.789 421.461 397.102C398.386 404.629 375.058 395.603 355.967 385.178C337.742 375.227 321.511 362.52 302.331 353.844C285.088 346.048 265.652 341.69 246.243 339.785C208.204 336.067 163.598 341.247 134.215 364.602C119.145 376.575 111.901 391.875 107.434 408.565C101.949 429.068 100.034 450.002 95.019 470.55C89.6211 492.558 80.2633 513.988 62.3054 531.062C41.9871 550.332 13.6426 561.329 -16.368 563.13C-29.5973 563.903 -42.8519 563.038 -55.7133 560.561C-55.8052 560.545 -55.9017 560.561 -55.9813 560.605C-56.061 560.649 -56.1174 560.717 -56.1382 560.796C-56.1589 560.874 -56.1423 560.955 -56.092 561.022C-56.0416 561.089 -55.9617 561.135 -55.8698 561.152L-55.9662 561.133Z" fill="white"/>
  <path d="M-59.9984 564.968C-34.3152 570.402 -6.47948 569.721 18.535 561.289C43.5496 552.858 64.1223 536.505 76.7837 516.338C88.8429 497.126 93.4263 475.537 96.7534 454.303C100.059 433.199 101.534 410.91 110.448 390.717C126.28 354.84 172.451 340.154 214.062 338.878C236.328 338.128 258.485 340.893 279.404 347.032C300.021 353.187 316.657 364.013 333.759 375.135C350.861 386.257 369.669 398.71 391.567 402.473C415.008 406.535 435.065 396.598 450.251 381.687C484.405 348.222 483.249 304.51 482.8 263.293C482.553 241.393 482.768 219.08 489.686 197.654C496.682 175.163 512.166 155.107 533.748 140.58C555.433 125.979 581.429 115.577 608.074 109.797C620.309 107.135 633.007 105.392 645.612 105.494C662.105 105.614 678.792 109.727 694.103 114.437C748.437 131.149 794.61 162.777 852.088 172.88C909.172 182.917 970.738 175.706 1023.54 153.58C1036.85 147.983 1049.58 141.438 1061.62 134.018C1061.99 133.786 1061.57 133.286 1061.22 133.516C1010.04 165.027 945.96 180.151 883.548 176.026C854.14 174.086 826.133 167.518 799.456 157.265C772.576 146.943 747.324 133.983 720.66 123.277C696.387 113.554 668.828 104.192 641.31 104.936C615.761 105.606 590.159 112.456 567.215 122.076C545.406 131.226 524.149 143.663 509.611 160.555C494.642 177.901 487.027 198.486 484.022 219.508C478.104 261.53 489.522 305.366 473.253 346.372C464.785 367.524 446.835 391.17 421.425 399.85C398.164 407.776 374.651 398.518 355.494 387.774C337.006 377.394 320.773 364.162 301.459 354.815C284.191 346.432 264.485 341.678 244.672 339.53C206.306 335.289 161.168 340.161 131.271 363.53C115.324 375.982 107.936 392.098 103.673 409.664C98.6103 430.554 97.204 451.879 92.6797 472.843C87.7543 495.606 78.6942 517.899 60.2303 535.616C39.9688 555.044 11.4804 566.025 -18.6055 567.677C-32.5075 568.4 -46.4166 567.298 -59.8401 564.41C-60.284 564.315 -60.4305 564.913 -59.9961 565.009L-59.9984 564.968Z" fill="white"/>
  <path d="M-64.0132 568.795C-37.4491 574.961 -8.32152 574.536 17.661 565.54C43.2881 556.662 63.916 539.449 76.0509 518.416C87.391 498.802 91.2881 477.042 94.0829 455.67C96.8778 434.297 97.876 411.849 106.403 391.372C121.941 354.05 169.791 339.058 212.61 338.253C234.864 337.761 256.95 340.799 277.732 347.211C298.708 353.805 315.441 365.312 332.716 376.957C349.793 388.476 368.298 401.124 390.199 405.267C414.086 409.795 434.518 399.57 449.86 384.238C484.536 349.58 481.788 304.37 480.331 262.218C479.57 240.162 479.3 217.707 485.719 196.044C492.624 172.754 507.614 152.469 529.979 137.449C551.82 122.758 578.087 112.413 604.929 106.751C617.809 104.036 631.177 102.334 644.413 102.658C661.096 103.074 677.88 107.553 693.239 112.607C748.752 130.898 795.452 164.732 854.512 176.149C912.491 187.328 975.538 180.686 1029.47 158.156C1042.87 152.537 1055.69 145.949 1067.79 138.467C1068.15 138.235 1067.74 137.734 1067.39 137.964C1015.23 170.162 949.741 184.98 886.299 179.849C855.976 177.396 827.357 169.984 800.103 158.811C773.228 147.762 748.024 134.137 721.385 122.727C696.213 111.959 667.511 101.459 638.546 102.061C612.732 102.585 586.817 109.292 563.588 118.936C541.14 128.252 519.29 141.135 504.754 158.714C490.218 176.293 483.057 196.989 480.568 218.046C475.446 261.305 488.531 306.273 472.359 348.621C464.134 370.203 445.935 394.631 419.893 403.097C396.087 410.837 372.258 400.556 353.187 389.321C334.894 378.535 318.788 365.021 299.634 355.318C282.178 346.477 262.035 341.425 241.877 339.079C203.258 334.579 157.543 339.355 127.495 363.087C111.647 375.599 104.297 391.704 100.3 409.279C95.4178 430.804 94.5332 452.745 90.5138 474.366C86.1425 497.647 77.7644 520.691 59.3287 539.06C38.811 559.496 9.35626 570.905 -21.8072 572.215C-36.0262 572.767 -50.2154 571.407 -63.8482 568.188C-64.2831 568.084 -64.4395 568.674 -63.9952 568.778L-64.0132 568.795Z" fill="white"/>
  <path d="M-68.0437 572.62C-41.2461 579.362 -11.6441 579.394 14.8374 570.458C40.5992 561.766 61.3524 544.578 73.5049 523.52C85.2419 503.188 88.8104 480.528 91.2073 458.37C93.5577 436.563 94.0645 413.692 102.137 392.611C116.898 354.051 165.49 338.369 209.287 337.669C232.316 337.219 255.143 340.574 276.492 347.548C297.52 354.551 314.151 366.589 331.361 378.593C348.57 390.597 367.441 403.958 389.874 408.24C413.52 412.726 433.779 402.471 448.902 387.296C484.664 351.316 480.273 304.408 477.812 261.03C476.485 238.095 475.739 214.65 482.401 192.085C489.363 168.622 504.651 148.384 527.318 133.476C549.985 118.568 577.605 108.064 605.601 102.908C619.369 100.376 633.743 98.9386 647.736 100.148C663.501 101.505 679.1 106.101 693.568 111.223C749.534 131.102 796.236 166.446 855.993 179.203C914.854 191.793 979.606 185.779 1034.84 162.947C1048.52 157.27 1061.61 150.568 1073.92 142.923C1074.3 142.691 1073.88 142.191 1073.53 142.421C1020.87 175.019 954.505 189.596 890.49 183.788C859.536 180.984 830.325 173.041 802.774 161.175C775.222 149.309 749.552 134.71 722.381 122.33C697.764 111.117 669.541 99.8231 640.903 99.1704C614.604 98.5681 587.773 104.916 563.848 114.237C540.549 123.328 517.649 136.183 502.298 154.011C486.947 171.838 479.572 193.274 477.234 214.96C472.483 259.352 487.21 305.048 472.234 348.789C464.607 371.144 446.497 396.793 419.813 405.854C395.84 413.999 371.758 403.474 352.672 391.974C334.126 380.766 317.954 366.772 298.71 356.339C281.505 347.056 261.416 341.622 241.248 338.937C201.823 333.684 154.574 338.129 123.802 362.525C107.546 375.415 100.229 392.084 96.5208 410.191C91.9188 432.613 91.5983 455.409 87.8585 477.91C83.9686 501.276 75.9631 524.5 57.7489 543.075C37.0495 564.159 6.97766 575.773 -24.8517 576.775C-39.4685 577.181 -54.0202 575.568 -67.9366 572C-68.3814 571.889 -68.5284 572.479 -68.093 572.591L-68.0437 572.62Z" fill="white"/>
  <path d="M-72.0763 576.448C-45.0643 583.767 -14.979 584.247 12.0021 575.379C38.6748 566.618 60.0148 548.702 72.0135 526.797C83.2216 506.383 86.3546 483.771 88.2604 461.691C90.2476 439.041 90.1636 415.348 98.0399 393.35C112.252 353.699 161.809 337.566 206.467 337.09C229.72 336.752 252.734 340.307 274.192 347.553C295.38 354.854 311.974 367.249 329.14 379.643C346.545 392.225 365.581 406.296 388.458 411.004C412.57 415.963 433.205 405.46 448.482 389.825C484.579 352.872 478.818 304.687 475.315 260.594C473.483 237.325 472.162 213.51 478.454 190.482C485.02 166.42 500.341 145.615 523.483 130.348C547.071 114.886 575.719 104.347 604.73 99.4392C618.726 97.0793 633.447 95.8645 647.56 97.4946C663.333 99.3274 678.774 104.143 693.183 109.575C749.601 130.841 796.289 167.761 856.64 182.049C916.546 196.226 983.147 191.049 1039.89 167.88C1053.98 162.107 1067.43 155.242 1080.07 147.373C1080.43 147.142 1080.02 146.641 1079.68 146.879C1025.84 180.304 957.591 194.562 892.379 187.507C860.656 184.086 830.963 175.242 803.036 162.477C775.423 149.88 749.755 134.651 722.524 121.58C697.598 109.618 668.951 97.436 639.591 96.3084C612.847 95.2797 585.416 101.469 560.987 110.795C537.08 119.929 513.435 133.077 498.023 151.498C482.871 169.629 475.813 191.119 473.853 212.912C469.719 258.762 486.285 305.757 471.456 351.055C464.053 373.664 445.952 399.797 418.996 408.93C394.523 417.169 370.079 405.809 350.964 393.818C332.373 382.161 316.233 367.729 296.909 356.905C279.536 347.171 259.066 341.428 238.497 338.564C198.618 333.023 150.499 337.445 119.614 362.518C103.12 375.898 96.105 393.179 92.7406 411.791C88.6138 434.686 88.7929 457.881 85.4705 480.843C82.0746 504.511 74.4656 528.165 56.3117 547.124C35.5257 568.851 4.70416 580.686 -27.7717 581.386C-42.7971 581.644 -57.7203 579.779 -71.9289 575.866C-72.3647 575.746 -72.5207 576.344 -72.0853 576.456L-72.0763 576.448Z" fill="white"/>
  <path d="M-76.1009 580.281C-48.2065 588.357 -16.7894 589.123 11.1848 579.633C38.2906 570.451 59.4892 551.736 70.9724 529.158C81.8487 507.786 84.2177 484.322 85.65 461.47C87.0822 438.618 86.4374 414.126 94.796 391.898C109.828 351.917 160.578 336.321 205.713 336.496C229.181 336.592 252.875 340.413 274.254 348.381C295.633 356.349 312.176 369.675 329.473 382.522C346.769 395.369 365.794 409.585 388.804 414.116C413.423 418.949 434.154 407.31 449.207 391.244C484.715 353.171 477.231 304.036 472.825 259.503C470.495 235.689 468.655 211.298 474.889 187.603C481.352 163.079 496.977 141.917 520.679 126.602C544.715 110.985 573.991 100.611 603.529 96.0606C617.593 93.8906 632.31 92.9424 646.416 94.7829C662.509 96.8798 678.183 102.101 692.786 107.918C749.674 130.546 796.384 168.99 857.337 184.794C918.29 200.598 986.656 196.28 1044.95 172.795C1059.45 166.94 1073.27 159.922 1086.23 151.837C1086.6 151.605 1086.18 151.104 1085.84 151.334C1030.56 185.747 960.051 199.628 893.238 191.082C861.093 186.967 831.256 177.26 803.227 163.734C775.649 150.416 749.98 134.517 722.704 120.826C697.664 108.225 668.811 95.2718 639.06 93.4885C611.661 91.8437 583.301 97.9493 558.171 107.348C534.029 116.375 510.182 129.502 494.592 147.973C479.172 166.249 472.201 188.082 470.473 210.103C466.77 257.285 485.089 305.269 471.06 352.055C464.142 375.128 446.53 401.483 419.573 411.416C395.312 420.352 370.709 409.22 351.648 397.178C332.162 384.869 315.575 369.454 295.597 357.707C278.639 347.74 258.572 341.698 238.26 338.505C197.943 332.157 148.934 336.009 117.091 360.992C100.052 374.364 92.5632 391.85 89.3043 410.803C85.2595 434.291 85.9574 458.053 83.2322 481.618C80.4115 506.004 73.592 530.621 55.3649 550.456C34.5916 573.063 3.14079 585.387 -30.1165 585.922C-45.756 586.112 -61.2642 584.004 -75.9539 579.691C-76.3897 579.571 -76.5367 580.161 -76.1099 580.29L-76.1009 580.281Z" fill="white"/>
  <path d="M-80.2215 584.079C-52.358 592.609 -20.8206 593.974 7.49799 584.835C35.3211 575.861 57.2333 556.798 68.7789 533.652C79.7542 511.685 81.7427 487.573 82.7515 464.156C83.7786 440.56 82.5897 415.558 90.6865 392.595C105.17 351.531 156.951 335.472 202.911 335.906C226.797 336.139 250.924 340.21 272.528 348.601C293.888 356.893 310.348 370.595 327.538 383.755C344.729 396.915 363.957 411.838 387.222 416.83C411.994 422.156 433.046 410.627 448.209 394.336C484.432 355.439 475.858 305.091 470.45 259.865C467.567 235.728 465.105 210.962 470.733 186.825C476.491 162.148 491.397 140.414 514.884 124.699C539.217 108.435 569.256 97.7271 599.474 93.0885C613.851 90.8842 628.836 89.969 643.235 91.7683C659.775 93.8313 675.86 99.4168 690.728 105.525C748.908 129.402 795.836 169.982 857.908 187.497C919.764 204.912 990.091 201.53 1049.94 177.729C1064.86 171.785 1079.07 164.601 1092.35 156.285C1092.72 156.054 1092.31 155.553 1091.96 155.783C1035.5 191.055 963.066 204.547 895.035 194.708C862.148 189.949 831.877 179.346 803.501 164.92C775.645 150.762 749.752 134.117 722.125 119.615C696.376 106.135 666.681 92.2934 635.671 90.5021C608.19 88.9105 579.809 94.8235 554.505 104.192C530.024 113.27 505.769 126.591 490.242 145.495C474.715 164.399 468.175 186.755 466.944 209.297C464.324 257.087 483.612 305.353 470.657 352.909C464.267 376.379 447.106 403.282 420.122 413.902C395.738 423.508 370.945 412.548 351.669 400.236C331.966 387.649 315.351 371.921 295.587 359.41C278.769 348.756 258.585 342.173 237.999 338.519C197.128 331.331 146.908 334.68 114.163 359.877C96.6906 373.322 88.8734 391.069 85.749 410.369C81.9157 434.055 83.0147 457.996 80.9787 481.78C78.8113 507.08 72.819 532.982 54.349 553.889C33.6868 577.264 1.70934 590.038 -32.1619 590.504C-48.4845 590.637 -64.6457 588.276 -79.8719 583.534C-80.2986 583.405 -80.6293 583.949 -80.2025 584.078L-80.2215 584.079Z" fill="white"/>
  <path d="M-84.2462 587.91C-55.918 597.059 -23.5073 598.858 5.52149 589.476C33.6434 580.397 55.585 561.017 66.9305 537.543C77.8592 514.933 79.3516 490.155 79.9561 466.172C80.5324 441.867 78.6874 415.902 87.0192 392.223C101.64 350.578 154.247 334.616 200.796 335.363C225.093 335.775 249.602 340.194 271.395 349.043C293.187 357.891 309.611 372.46 327.011 386.092C344.41 399.724 363.888 415.198 387.715 420.005C413.21 425.143 434.462 412.133 449.322 395.222C484.398 355.284 474.234 304.286 467.959 258.9C464.582 234.461 461.633 209.343 466.951 184.797C472.381 159.719 487.231 137.519 511.049 121.584C535.95 104.931 566.898 94.1304 597.837 89.7731C612.735 87.6679 628.171 86.9688 643.051 89.1763C659.844 91.6688 676.097 97.6805 691.139 104.158C750.191 129.777 797.55 172.197 861.051 190.857C923.388 209.173 994.628 206.425 1055.34 182.517C1070.54 176.514 1085 169.214 1098.49 160.732C1098.87 160.5 1098.45 159.999 1098.1 160.229C1040.61 196.264 966.504 209.368 897.396 198.387C863.885 193.059 833.237 181.695 804.569 166.502C776.382 151.556 750.233 134.119 722.294 118.852C696.443 104.747 666.548 90.086 635.112 87.6735C606.959 85.5071 577.693 91.2936 551.689 100.743C526.778 109.798 502.044 123.251 486.383 142.47C470.722 161.688 464.318 184.763 463.477 207.783C461.715 256.411 482.188 305.207 470.233 353.73C464.392 377.483 448.056 404.145 421.672 415.909C396.709 427.042 370.937 415.792 351.08 402.835C330.989 389.794 314.213 373.429 294.201 360.263C277.418 349.219 257.241 342.256 236.498 338.369C195.012 330.595 143.575 333.659 110.321 359.45C92.7448 373.079 84.9419 391.076 82.0481 410.573C78.4349 434.932 80.0555 459.489 78.4666 483.917C76.7995 509.794 71.3089 536.296 52.7825 557.877C32.131 581.929 -0.678771 594.978 -35.1508 595.107C-51.8814 595.09 -68.4082 592.474 -83.9141 587.391C-84.3413 587.254 -84.6725 587.79 -84.2448 587.935L-84.2462 587.91Z" fill="white"/>
  <path d="M-88.2748 591.74C-59.7174 601.393 -26.878 603.683 2.69022 594.399C31.8646 585.227 54.3542 564.944 65.5006 540.496C76.0928 517.178 76.9786 491.798 77.0561 467.272C77.159 442.527 74.8014 415.937 83.27 391.822C98.2309 349.132 152.717 333.368 200.178 334.878C224.754 335.669 249.48 340.537 271.252 350.032C293.298 359.649 309.985 375.301 327.773 389.556C344.94 403.291 364.609 418.915 388.572 423.286C414.303 427.893 435.481 413.774 449.834 396.65C484.323 355.632 472.592 303.731 465.443 257.919C461.613 233.377 458.219 208.148 463.038 183.388C468.041 157.673 482.841 134.774 507.208 118.451C532.447 101.545 564.006 90.7572 595.459 86.5478C610.807 84.4892 626.757 83.9299 641.939 86.4187C658.764 89.1434 674.994 95.4068 689.993 102.145C749.835 129.043 797.35 173.181 861.65 193.467C924.912 213.425 998.028 211.658 1060.37 187.438C1075.98 181.356 1090.82 173.899 1104.64 165.192C1105.01 164.961 1104.6 164.46 1104.25 164.69C1045.52 201.596 969.474 214.246 899.156 201.955C864.93 195.966 833.868 183.697 804.863 167.636C776.657 152.021 750.501 133.978 722.47 118.103C696.093 103.141 665.521 87.485 633.065 84.7439C604.423 82.3635 574.56 88.0232 548.038 97.5912C522.488 106.812 497.215 120.66 481.599 140.651C466.293 160.252 460.45 183.287 460.028 206.315C459.078 255.793 480.741 305.068 469.788 354.616C464.505 378.611 448.806 405.405 422.796 418.044C397.862 430.177 371.908 419.559 351.675 406.365C331.271 393.011 314.404 376.401 294.652 362.461C277.761 350.52 257.359 342.818 235.95 338.445C193.883 329.857 141.257 332.457 107.133 358.549C89.2554 372.227 81.1807 390.466 78.4157 410.214C74.8912 435.448 77.0812 460.787 75.9591 486.036C74.7845 512.353 69.9226 539.675 51.3225 561.792C30.5125 586.565 -2.86276 599.888 -38.1042 599.731C-55.2556 599.553 -72.1555 596.658 -87.9346 591.196C-88.3623 591.051 -88.693 591.595 -88.2653 591.74L-88.2748 591.74Z" fill="white"/>
  <path d="M-92.3035 595.566C-62.8922 605.976 -28.6495 608.638 1.90774 598.659C31.3523 589.051 53.6476 568.044 64.1725 543.067C74.3378 518.959 74.4807 492.927 74.1139 467.805C73.7472 442.683 70.9198 415.386 79.7066 390.841C95.0629 347.902 150.326 332.392 198.058 334.306C223.045 335.283 248.153 340.5 270.09 350.526C292.203 360.632 308.885 376.857 326.712 391.466C343.99 405.63 363.985 421.962 388.479 426.286C414.476 430.886 435.677 416.006 449.883 398.648C484.177 356.713 471.127 303.936 463.085 257.675C458.787 232.797 454.792 207.223 459.156 182.005C463.559 156.461 477.557 133.213 501.434 116.653C526.889 99.0317 559.22 87.9245 591.333 83.5882C606.946 81.482 623.115 80.9423 638.616 83.3399C656.08 86.0601 672.838 92.7289 688.279 99.8454C749.24 127.986 796.969 173.994 862.215 195.969C926.674 217.698 1002.15 216.861 1066.29 191.988C1081.97 185.883 1096.87 178.384 1110.74 169.619C1111.12 169.387 1110.7 168.886 1110.36 169.124C1050.39 206.908 972.375 219.092 900.893 205.463C865.51 198.733 833.731 185.279 804.08 168.092C775.425 151.478 748.808 132.533 720.16 115.878C693.702 100.525 663.072 84.5252 630.25 81.7165C600.771 79.1989 569.985 85.0491 542.754 95.0296C516.895 104.519 491.711 118.749 476.435 139.358C461.532 159.485 456.436 182.929 456.6 206.19C456.958 256.035 479.248 305.452 469.365 355.527C464.512 380.031 449.188 407.062 423.178 420.516C398.296 433.381 372.002 422.822 351.651 409.409C330.756 395.632 313.642 378.366 293.733 363.701C276.734 351.216 256.321 342.982 234.454 338.28C191.992 329.118 138.382 331.355 103.732 357.735C85.4759 371.629 77.2887 390.23 74.6886 410.356C71.4062 435.988 74.0113 461.747 73.4277 487.409C72.829 513.798 68.9219 541.315 51.1763 564.037C30.6723 590.309 -3.81053 604.585 -40.297 604.322C-58.1088 604.073 -75.6314 600.915 -91.9063 595.018C-92.3245 594.873 -92.6552 595.417 -92.237 595.562L-92.3035 595.566Z" fill="white"/>
  <path d="M-96.3339 599.416C-66.1447 610.588 -30.7081 613.625 0.796248 603.051C30.1509 593.206 52.1169 571.943 62.3508 546.878C72.6143 521.666 72.0519 494.48 71.1497 468.34C70.3012 442.632 66.8774 414.417 76.3305 389.364C93.0327 345.144 151.581 330.736 200.512 334.107C225.389 335.817 250.182 341.682 271.54 352.421C293.969 363.703 310.822 381.396 329.371 396.617C346.513 410.74 367.384 427.393 392.475 429.841C419.092 432.468 439.996 414.602 452.878 396.602C484.561 352.363 468.154 298.222 459.486 251.182C454.842 225.92 451.003 199.755 456.442 174.184C461.927 148.401 477.644 126.03 502.545 110.201C528.54 93.6797 560.66 83.376 592.554 79.8598C607.26 78.242 622.346 78.0718 636.864 80.4456C653.219 83.1087 668.826 89.3113 683.332 95.9328C746.594 124.788 794.85 173.156 861.061 197.82C925.763 221.925 1004.95 221.85 1070.44 197.214C1086.88 191.01 1102.48 183.255 1116.92 174.097C1117.29 173.866 1116.88 173.365 1116.53 173.595C1054.73 212.64 974.005 223.591 900.828 208.341C864.125 200.702 832.172 185.724 801.822 167.165C772.58 149.309 745.245 129.315 715.503 112.029C690.366 97.4234 661.537 82.4257 630.576 78.9926C601.628 75.7741 571.154 80.92 544.011 90.1203C517.971 98.9418 491.938 112.511 475.622 132.421C459.599 151.975 453.455 175.431 453.136 198.744C452.443 250.023 476.209 299.75 469.582 351.251C466.309 377.044 452.913 404.117 427.836 420.36C416.72 427.551 403.375 430.955 389.666 428.898C376.573 426.934 364.81 420.945 354.403 414.353C332.538 400.47 315.005 382.542 295.076 366.852C278.316 353.74 258.102 344.187 236.044 338.955C192.67 328.36 136.982 329.764 100.851 356.578C82.3752 370.299 73.6014 388.973 71.0529 409.169C67.7065 435.668 70.9046 462.29 70.8271 488.794C70.7549 515.718 67.5366 543.938 49.9587 567.417C29.4848 594.706 -5.87196 609.524 -43.3206 608.937C-61.5552 608.538 -79.4527 605.113 -96.0041 598.856C-96.4228 598.703 -96.754 599.238 -96.3353 599.392L-96.3339 599.416Z" fill="white"/>
</svg>
