<svg width="123" height="59" viewBox="0 0 123 59" fill="none" xmlns="http://www.w3.org/2000/svg">
  <path d="M0.53782 11.3501L2.15128 5.94903C2.25293 5.5407 2.8085 4.89365 3.22692 4.86881H10.2186C10.5766 4.84007 10.9362 4.84007 11.2942 4.86881H15.5968C15.9119 4.90067 15.9932 5.12428 16.1346 5.40892L16.6724 6.48914C16.8959 6.82524 17.0766 7.18814 17.2102 7.56936L17.7481 9.72979C17.8083 10.0895 17.9229 10.2699 18.2859 10.2699C18.4188 10.2436 18.5409 10.1782 18.6367 10.0821C18.7324 9.98588 18.7975 9.86325 18.8237 9.72979V7.02925C18.8237 6.03112 18.274 5.17559 17.7481 4.3287C17.251 3.48904 16.5411 2.79674 15.6908 2.32234C14.8405 1.84795 13.8802 1.60841 12.9077 1.62815H11.832C11.5798 1.62815 11.4722 1.26736 11.2942 1.08804C10.3963 0.325766 9.24107 -0.0609458 8.0673 0.00782147H7.52948C5.78555 0.0176086 4.09009 0.585169 2.6891 1.62815C2.29236 1.94771 1.93166 2.30994 1.61346 2.70837V3.24848C0.785755 4.29197 0 5.15507 0 6.48914V11.3501C0 11.4679 0.420575 11.3501 0.53782 11.3501C0.504475 11.4743 0.665821 11.3501 0.53782 11.3501Z" fill="white"/>
  <path d="M9.68144 50.2377V38.8954C9.65856 38.6825 9.69709 38.4675 9.79244 38.276C9.88779 38.0845 10.0359 37.9245 10.2193 37.8152C10.7192 37.4608 11.0932 36.9552 11.2867 36.3722C11.4802 35.7892 11.4831 35.1593 11.2949 34.5745C11.1996 34.085 10.9269 33.6483 10.5295 33.349C10.1321 33.0496 9.63831 32.909 9.14362 32.9542C7.98408 32.9445 6.80357 33.4641 6.45452 34.5745C6.26722 35.1594 6.27052 35.7889 6.46397 36.3718C6.65741 36.9546 7.03091 37.4602 7.53016 37.8152C7.71605 37.9218 7.86634 38.0812 7.96206 38.2735C8.05778 38.4657 8.09464 38.6822 8.06798 38.8954C8.04862 42.5444 8.06798 46.0486 8.06798 49.6976V50.2377L2.68978 39.9756C2.08151 38.6945 1.65233 37.4868 1.07632 36.1949C0.951121 35.8458 0.951121 35.4638 1.07632 35.1147C2.98741 32.4181 4.10554 29.2366 4.30324 25.9328C4.32314 25.8437 4.26237 26.0144 4.30324 25.9328H13.4462C13.7436 27.3371 13.6419 28.3703 13.984 29.7136C14.5584 31.6582 15.4686 33.4864 16.6731 35.1147C16.7691 35.2783 16.8198 35.4648 16.8198 35.6548C16.8198 35.8447 16.7691 36.0312 16.6731 36.1949" fill="white"/>
  <path d="M14.522 24.3125V25.3927C14.3558 25.8 13.8826 26.5134 13.4464 26.4729H4.84126C4.57312 26.4258 4.32597 26.2968 4.13348 26.1035C3.941 25.9102 3.81254 25.662 3.76562 25.3927V24.3125H14.522Z" fill="white"/>
  <path d="M9.14258 26.4747L11.2939 25.3945V27.555L9.14258 26.4747Z" fill="#FFFCF8"/>
  <path d="M8.60636 26.4747L6.45508 27.555V25.3945L8.60636 26.4747Z" fill="#FFFCF8"/>
  <path d="M8.60563 51.3163C8.23345 51.2374 7.19008 52.4089 7.52999 53.4767C8.02317 55.0695 11.4071 55.5729 12.3704 55.6372C15.7167 55.8635 16.8235 54.4203 19.8998 55.097C21.8812 55.5243 22.4061 56.2351 22.5889 56.7174C22.8041 57.3002 22.3614 58.1924 22.5889 58.3377C22.8164 58.483 23.4946 57.8192 23.6646 57.2575C23.7369 56.964 23.7248 56.6559 23.6296 56.369C23.5344 56.0822 23.36 55.8284 23.1268 55.6372C22.5352 55.0565 21.7688 54.7427 20.4377 54.5569C18.4219 54.262 17.1855 54.5569 15.0595 54.5569C13.9608 54.5662 12.8689 54.3835 11.8325 54.0168C10.0233 53.5534 9.27091 53.1375 9.14345 52.9366C8.65242 52.1378 8.86539 51.3714 8.60563 51.3163Z" fill="white"/>
  <path d="M47.7917 14.074C47.2051 13.986 46.5891 13.7733 45.9437 13.436V12.6H51.4877V13.436C51.2384 13.5973 50.9744 13.7293 50.6957 13.832C50.4171 13.9347 50.1457 14.0153 49.8817 14.074L45.9877 28L43.6997 28.264L40.2897 17.616L36.9677 28L34.6577 28.264L30.3677 14.074C30.0597 14.0153 29.7737 13.9347 29.5097 13.832C29.2457 13.7147 28.9964 13.5827 28.7617 13.436V12.6H35.8897V13.436C35.6404 13.568 35.3544 13.6927 35.0317 13.81C34.7237 13.9127 34.4011 14.0007 34.0637 14.074L36.1097 21.84L36.5717 24.7H36.6157L37.3857 21.73L40.3117 12.6H41.6097L44.7337 21.62L45.4817 24.48H45.5257L46.0317 21.576L47.7917 14.074ZM57.0362 26.526C57.3735 26.5993 57.6742 26.6947 57.9382 26.812C58.2022 26.9293 58.4589 27.0467 58.7082 27.164V28H51.9322V27.164C52.2549 26.988 52.5629 26.856 52.8562 26.768C53.1495 26.6653 53.4429 26.5847 53.7362 26.526V14.074C53.0029 13.9127 52.4015 13.7 51.9322 13.436V12.6H54.2642C54.5575 12.6 54.8875 12.5927 55.2542 12.578C55.6355 12.5633 56.0315 12.5487 56.4422 12.534C56.8529 12.5047 57.2709 12.4827 57.6962 12.468C58.1215 12.4387 58.5322 12.424 58.9282 12.424C59.7349 12.424 60.4755 12.5193 61.1502 12.71C61.8395 12.886 62.4262 13.1573 62.9102 13.524C63.4089 13.8907 63.7902 14.3527 64.0542 14.91C64.3329 15.4527 64.4722 16.0907 64.4722 16.824C64.4722 17.88 64.2155 18.7453 63.7022 19.42C63.1889 20.0947 62.4849 20.6007 61.5902 20.938C62.1769 21.862 62.8002 22.808 63.4602 23.776C64.1202 24.7293 64.8169 25.6533 65.5502 26.548L66.6062 27.252V28H62.9322L61.9862 27.274C61.3115 26.4673 60.7102 25.536 60.1822 24.48C59.6689 23.4093 59.2142 22.3607 58.8182 21.334H57.0362V26.526ZM58.1362 13.854C57.6815 13.854 57.3149 13.898 57.0362 13.986V20.124H58.3342C59.0822 20.124 59.7202 19.86 60.2482 19.332C60.7762 18.7893 61.0402 17.99 61.0402 16.934C61.0402 16.3913 60.9669 15.9293 60.8202 15.548C60.6735 15.152 60.4682 14.8293 60.2042 14.58C59.9402 14.3307 59.6322 14.1473 59.2802 14.03C58.9282 13.9127 58.5469 13.854 58.1362 13.854ZM74.356 28H67.492V27.164C68.0787 26.8413 68.6727 26.6287 69.274 26.526V14.074C68.9807 14.03 68.6727 13.9493 68.35 13.832C68.0274 13.7147 67.7414 13.5827 67.492 13.436V12.6H74.356V13.436C74.092 13.5973 73.7987 13.7367 73.476 13.854C73.168 13.9567 72.8674 14.03 72.574 14.074V26.526C72.8674 26.5847 73.168 26.6653 73.476 26.768C73.7987 26.8707 74.092 27.0027 74.356 27.164V28ZM86.1276 28H78.5596V27.164C78.8529 27.0467 79.1829 26.9293 79.5496 26.812C79.9309 26.68 80.3122 26.5847 80.6936 26.526V14.03H78.1416L76.7336 17.792H75.8316C75.7729 17.4987 75.7142 17.1247 75.6556 16.67C75.5969 16.2153 75.5456 15.746 75.5016 15.262C75.4576 14.778 75.4209 14.3013 75.3916 13.832C75.3622 13.348 75.3476 12.9373 75.3476 12.6H89.3616C89.3616 12.952 89.3469 13.3627 89.3176 13.832C89.2882 14.3013 89.2516 14.778 89.2076 15.262C89.1636 15.746 89.1122 16.2153 89.0536 16.67C88.9949 17.11 88.9362 17.484 88.8776 17.792H87.9536L86.5456 14.03H83.9936V26.526C84.3749 26.5993 84.7489 26.6873 85.1156 26.79C85.4969 26.8927 85.8342 27.0173 86.1276 27.164V28ZM101.703 12.6C101.674 13.26 101.623 13.942 101.549 14.646C101.476 15.35 101.381 16.01 101.263 16.626H100.361L99.3494 14.03H95.2354V19.42H97.9194L98.8874 17.726H99.5914C99.6647 18.4447 99.7014 19.244 99.7014 20.124C99.7014 21.004 99.6647 21.8253 99.5914 22.588H98.8874L97.9194 20.85H95.2354V26.57H99.5254L100.691 23.776H101.593C101.652 24.0547 101.711 24.37 101.769 24.722C101.828 25.074 101.872 25.4407 101.901 25.822C101.945 26.1887 101.975 26.5627 101.989 26.944C102.019 27.3253 102.033 27.6773 102.033 28H90.1314V27.164C90.3807 27.032 90.6594 26.9073 90.9674 26.79C91.2754 26.6727 91.5981 26.5847 91.9354 26.526V14.074C91.6421 14.0153 91.3267 13.9347 90.9894 13.832C90.6667 13.7147 90.3807 13.5827 90.1314 13.436V12.6H101.703ZM108.513 26.526C108.85 26.5993 109.151 26.6947 109.415 26.812C109.679 26.9293 109.935 27.0467 110.185 27.164V28H103.409V27.164C103.731 26.988 104.039 26.856 104.333 26.768C104.626 26.6653 104.919 26.5847 105.213 26.526V14.074C104.479 13.9127 103.878 13.7 103.409 13.436V12.6H105.741C106.034 12.6 106.364 12.5927 106.731 12.578C107.112 12.5633 107.508 12.5487 107.919 12.534C108.329 12.5047 108.747 12.4827 109.173 12.468C109.598 12.4387 110.009 12.424 110.405 12.424C111.211 12.424 111.952 12.5193 112.627 12.71C113.316 12.886 113.903 13.1573 114.387 13.524C114.885 13.8907 115.267 14.3527 115.531 14.91C115.809 15.4527 115.949 16.0907 115.949 16.824C115.949 17.88 115.692 18.7453 115.179 19.42C114.665 20.0947 113.961 20.6007 113.067 20.938C113.653 21.862 114.277 22.808 114.937 23.776C115.597 24.7293 116.293 25.6533 117.027 26.548L118.083 27.252V28H114.409L113.463 27.274C112.788 26.4673 112.187 25.536 111.659 24.48C111.145 23.4093 110.691 22.3607 110.295 21.334H108.513V26.526ZM109.613 13.854C109.158 13.854 108.791 13.898 108.513 13.986V20.124H109.811C110.559 20.124 111.197 19.86 111.725 19.332C112.253 18.7893 112.517 17.99 112.517 16.934C112.517 16.3913 112.443 15.9293 112.297 15.548C112.15 15.152 111.945 14.8293 111.681 14.58C111.417 14.3307 111.109 14.1473 110.757 14.03C110.405 13.9127 110.023 13.854 109.613 13.854ZM54.6023 39.074C54.0156 38.986 53.3996 38.7733 52.7543 38.436V37.6H58.2983V38.436C58.0489 38.5973 57.7849 38.7293 57.5063 38.832C57.2276 38.9347 56.9563 39.0153 56.6923 39.074L52.7983 53L50.5103 53.264L47.1003 42.616L43.7783 53L41.4683 53.264L37.1783 39.074C36.8703 39.0153 36.5843 38.9347 36.3203 38.832C36.0563 38.7147 35.8069 38.5827 35.5723 38.436V37.6H42.7003V38.436C42.4509 38.568 42.1649 38.6927 41.8423 38.81C41.5343 38.9127 41.2116 39.0007 40.8743 39.074L42.9203 46.84L43.3823 49.7H43.4263L44.1963 46.73L47.1223 37.6H48.4203L51.5443 46.62L52.2923 49.48H52.3363L52.8423 46.576L54.6023 39.074ZM58.4732 45.3C58.4732 44.156 58.6346 43.1 58.9572 42.132C59.2799 41.1493 59.7566 40.306 60.3872 39.602C61.0179 38.8833 61.7952 38.326 62.7192 37.93C63.6432 37.534 64.7066 37.336 65.9092 37.336C67.1119 37.336 68.1752 37.534 69.0992 37.93C70.0232 38.326 70.7932 38.8833 71.4092 39.602C72.0399 40.306 72.5166 41.1493 72.8392 42.132C73.1619 43.1 73.3232 44.156 73.3232 45.3C73.3232 46.444 73.1619 47.5073 72.8392 48.49C72.5166 49.458 72.0399 50.3013 71.4092 51.02C70.7932 51.724 70.0232 52.274 69.0992 52.67C68.1752 53.066 67.1119 53.264 65.9092 53.264C64.7066 53.264 63.6432 53.066 62.7192 52.67C61.7952 52.274 61.0179 51.724 60.3872 51.02C59.7566 50.3013 59.2799 49.458 58.9572 48.49C58.6346 47.5073 58.4732 46.444 58.4732 45.3ZM62.2132 45.3C62.2132 46.2387 62.2866 47.1113 62.4332 47.918C62.5799 48.71 62.8072 49.3993 63.1152 49.986C63.4379 50.558 63.8412 51.0127 64.3252 51.35C64.8239 51.6727 65.4179 51.834 66.1072 51.834C66.7379 51.834 67.2732 51.6727 67.7132 51.35C68.1532 51.0127 68.5126 50.558 68.7912 49.986C69.0699 49.3993 69.2679 48.71 69.3852 47.918C69.5172 47.1113 69.5832 46.2387 69.5832 45.3C69.5832 44.3613 69.5099 43.496 69.3632 42.704C69.2312 41.8973 69.0112 41.208 68.7032 40.636C68.4099 40.0493 68.0139 39.5947 67.5152 39.272C67.0312 38.9347 66.4372 38.766 65.7332 38.766C65.0586 38.766 64.4939 38.9347 64.0392 39.272C63.5846 39.5947 63.2179 40.0493 62.9392 40.636C62.6752 41.208 62.4846 41.8973 62.3672 42.704C62.2646 43.496 62.2132 44.3613 62.2132 45.3ZM79.7452 51.526C80.0825 51.5993 80.3832 51.6947 80.6472 51.812C80.9112 51.9293 81.1678 52.0467 81.4172 52.164V53H74.6412V52.164C74.9638 51.988 75.2718 51.856 75.5652 51.768C75.8585 51.6653 76.1518 51.5847 76.4452 51.526V39.074C75.7118 38.9127 75.1105 38.7 74.6412 38.436V37.6H76.9732C77.2665 37.6 77.5965 37.5927 77.9632 37.578C78.3445 37.5633 78.7405 37.5487 79.1512 37.534C79.5618 37.5047 79.9798 37.4827 80.4052 37.468C80.8305 37.4387 81.2412 37.424 81.6372 37.424C82.4438 37.424 83.1845 37.5193 83.8592 37.71C84.5485 37.886 85.1352 38.1573 85.6192 38.524C86.1178 38.8907 86.4992 39.3527 86.7632 39.91C87.0418 40.4527 87.1812 41.0907 87.1812 41.824C87.1812 42.88 86.9245 43.7453 86.4112 44.42C85.8978 45.0947 85.1938 45.6007 84.2992 45.938C84.8858 46.862 85.5092 47.808 86.1692 48.776C86.8292 49.7293 87.5258 50.6533 88.2592 51.548L89.3152 52.252V53H85.6412L84.6952 52.274C84.0205 51.4673 83.4192 50.536 82.8912 49.48C82.3778 48.4093 81.9232 47.3607 81.5272 46.334H79.7452V51.526ZM80.8452 38.854C80.3905 38.854 80.0238 38.898 79.7452 38.986V45.124H81.0432C81.7912 45.124 82.4292 44.86 82.9572 44.332C83.4852 43.7893 83.7492 42.99 83.7492 41.934C83.7492 41.3913 83.6758 40.9293 83.5292 40.548C83.3825 40.152 83.1772 39.8293 82.9132 39.58C82.6492 39.3307 82.3412 39.1473 81.9892 39.03C81.6372 38.9127 81.2558 38.854 80.8452 38.854ZM98.319 37.6H104.215V38.436C103.966 38.5973 103.68 38.7367 103.357 38.854C103.034 38.9567 102.741 39.03 102.477 39.074L98.297 44.376C98.6343 44.8453 99.0303 45.3807 99.485 45.982C99.9397 46.5687 100.424 47.1847 100.937 47.83C101.45 48.4607 101.978 49.106 102.521 49.766C103.064 50.4113 103.592 51.0273 104.105 51.614L105.161 52.252V53H101.333L100.453 52.384C100.101 51.944 99.727 51.46 99.331 50.932C98.9497 50.3893 98.5683 49.832 98.187 49.26C97.8057 48.6733 97.4317 48.0867 97.065 47.5C96.6983 46.9133 96.3537 46.3413 96.031 45.784H95.085V51.526C95.4077 51.5847 95.701 51.6727 95.965 51.79C96.229 51.9073 96.4563 52.032 96.647 52.164V53H89.981V52.164C90.2743 52.0173 90.575 51.8927 90.883 51.79C91.191 51.6727 91.4917 51.5847 91.785 51.526V39.074C91.4477 39.03 91.1177 38.9493 90.795 38.832C90.487 38.7147 90.2157 38.5827 89.981 38.436V37.6H96.647V38.436C96.4563 38.5533 96.2217 38.6707 95.943 38.788C95.679 38.9053 95.393 39.0007 95.085 39.074V44.662L96.383 44.354L99.925 39.074C99.6317 39.0153 99.3383 38.9273 99.045 38.81C98.7663 38.678 98.5243 38.5533 98.319 38.436V37.6ZM108.614 51.174C108.775 51.3353 109.003 51.4893 109.296 51.636C109.589 51.768 109.978 51.834 110.462 51.834C111.269 51.834 111.936 51.6287 112.464 51.218C113.007 50.7927 113.278 50.206 113.278 49.458C113.278 48.9153 113.102 48.4607 112.75 48.094C112.413 47.7273 111.98 47.39 111.452 47.082C110.924 46.774 110.359 46.4733 109.758 46.18C109.157 45.872 108.592 45.5127 108.064 45.102C107.536 44.6913 107.096 44.2073 106.744 43.65C106.407 43.078 106.238 42.374 106.238 41.538C106.238 40.8193 106.37 40.196 106.634 39.668C106.898 39.14 107.257 38.7073 107.712 38.37C108.181 38.018 108.731 37.7613 109.362 37.6C109.993 37.424 110.675 37.336 111.408 37.336C112.303 37.336 113.131 37.402 113.894 37.534C114.671 37.6513 115.368 37.842 115.984 38.106C115.969 38.3993 115.94 38.7367 115.896 39.118C115.867 39.4993 115.823 39.8807 115.764 40.262C115.705 40.6287 115.639 40.9807 115.566 41.318C115.507 41.6407 115.449 41.912 115.39 42.132H114.488L113.476 39.118C113.3 39.03 113.036 38.9493 112.684 38.876C112.347 38.8027 111.995 38.766 111.628 38.766C111.012 38.766 110.491 38.9273 110.066 39.25C109.641 39.5727 109.428 40.042 109.428 40.658C109.428 41.2153 109.604 41.692 109.956 42.088C110.308 42.4693 110.748 42.8213 111.276 43.144C111.804 43.4667 112.376 43.7893 112.992 44.112C113.623 44.42 114.202 44.7793 114.73 45.19C115.258 45.6007 115.698 46.0847 116.05 46.642C116.402 47.1847 116.578 47.8593 116.578 48.666C116.578 50.1327 116.079 51.2693 115.082 52.076C114.099 52.868 112.647 53.264 110.726 53.264C110.257 53.264 109.78 53.2347 109.296 53.176C108.827 53.1173 108.379 53.0367 107.954 52.934C107.529 52.8313 107.147 52.7213 106.81 52.604C106.487 52.4867 106.245 52.362 106.084 52.23C106.099 51.8927 106.135 51.5333 106.194 51.152C106.253 50.756 106.311 50.3673 106.37 49.986C106.443 49.59 106.517 49.216 106.59 48.864C106.663 48.512 106.737 48.204 106.81 47.94H107.712L108.614 51.174Z" fill="white"/>
</svg>
