<svg width="223" height="699" viewBox="0 0 223 699" fill="none" xmlns="http://www.w3.org/2000/svg">
  <path opacity="0.05" d="M210 91.3C210 109.9 206.9 126 200.7 139.6C194.5 153.4 185.7 164 174.3 171.4C162.9 178.8 149.4 182.5 133.8 182.5C118.4 182.5 104.9 178.8 93.3 171.4C81.9 164 73.1 153.4 66.9 139.6C60.9 126 57.9 109.9 57.9 91.3V49H0V0.400001L210 0.400001L210 91.3ZM97.5 88.6C97.5 103.2 100.6 114.3 106.8 121.9C113.2 129.5 122.2 133.3 133.8 133.3C145.6 133.3 154.6 129.5 160.8 121.9C167.2 114.3 170.4 103.2 170.4 88.6L170.4 49L97.5 49V88.6ZM163.8 344.927C163.8 364.927 157.8 381.027 145.8 393.227C133.8 405.627 116 411.827 92.4 411.827H0V365.027H85.2C98 365.027 107.5 362.227 113.7 356.627C120.1 351.027 123.3 342.927 123.3 332.327C123.3 320.527 119.6 311.127 112.2 304.127C105 297.127 94.2 293.627 79.8 293.627H0V246.827L222.6 246.827V293.627H144.6C150.8 299.827 155.5 307.327 158.7 316.127C162.1 324.927 163.8 334.527 163.8 344.927ZM210 487.548L210 582.948C210 605.748 205.6 625.848 196.8 643.248C188.2 660.848 176 674.448 160.2 684.048C144.4 693.848 126 698.748 105 698.748C84 698.748 65.6 693.848 49.8 684.048C34 674.448 21.7 660.848 12.9 643.248C4.3 625.848 0 605.748 0 582.948L0 487.548H210ZM39.9 580.548C39.9 601.548 45.7 618.248 57.3 630.648C69.1 643.248 85 649.548 105 649.548C125 649.548 140.8 643.248 152.4 630.648C164.2 618.248 170.1 601.548 170.1 580.548L170.1 536.148H39.9V580.548Z" fill="black"/>
</svg>
